<svg width="303" height="50" viewBox="0 0 303 50" fill="none" xmlns="http://www.w3.org/2000/svg">
<path d="M75.4515 7.34356H92.4432C94.1441 7.32366 95.8445 7.41215 97.5332 7.60843C98.8973 7.79634 100.206 8.25145 101.379 8.94538C102.586 9.63344 103.585 10.6125 104.275 11.7852C104.965 12.9578 105.323 14.2833 105.313 15.6295C105.306 17.4321 104.732 19.1908 103.666 20.6759C102.569 22.2578 100.822 23.4019 98.4255 24.1084V24.2047C102.363 25.3451 104.332 27.8261 104.332 31.6478C104.332 34.4418 103.117 36.9749 100.688 39.2472C98.2578 41.5197 94.7891 42.6559 90.2815 42.6557H67.584L75.4515 7.34356ZM80.7048 35.0681H86.7876C91.0772 35.0681 93.2221 33.7032 93.2224 30.9733C93.2224 30.0097 92.9124 29.2509 92.2924 28.697C91.6722 28.143 90.407 27.866 88.4969 27.866H82.3135L80.7048 35.0681ZM83.7965 21.1456H87.6674C89.3429 21.1456 90.6374 21.0332 91.5509 20.8083C92.4373 20.6007 93.2199 20.1021 93.7628 19.3993C94.324 18.6849 94.6047 17.9663 94.6049 17.2435C94.6049 16.3763 94.2991 15.7018 93.6874 15.22C93.0755 14.7383 91.8732 14.4975 90.0804 14.4975H85.2293L83.7965 21.1456Z" fill="white"/>
<path d="M123.284 17.0996L117.554 42.656H107.273L112.98 17.0996H123.284Z" fill="white"/>
<path d="M125.396 7.34277L123.937 14.0873H113.707L115.14 7.34277H125.396Z" fill="#009345" stroke="white" stroke-miterlimit="10"/>
<path d="M147.012 17.0991L145.454 24.1086H140.1L138.139 33.1413C138.003 33.5376 137.935 33.9525 137.938 34.3697C137.938 35.5259 138.734 36.1041 140.326 36.1041C140.829 36.1041 141.885 35.9515 143.493 35.6463L141.96 42.6558C138.876 43.0571 136.614 43.2578 135.173 43.2581C132.308 43.2581 130.276 42.5997 129.078 41.2829C127.88 39.9664 127.28 38.5292 127.281 36.9712C127.281 36.4575 127.524 35.0846 128.01 32.8523L129.92 24.1086H126.25L127.758 17.0991H131.503L132.383 13.1005L143.82 7.63281L141.709 17.0991H147.012Z" fill="white"/>
<path d="M155.483 7.34356H172.474C174.175 7.32366 175.876 7.41214 177.564 7.60843C178.929 7.79634 180.238 8.25145 181.41 8.94538C182.618 9.63343 183.616 10.6125 184.306 11.7852C184.997 12.9578 185.354 14.2833 185.344 15.6295C185.337 17.4321 184.764 19.1908 183.698 20.6759C182.6 22.2578 180.853 23.4019 178.457 24.1084V24.2047C182.394 25.3451 184.363 27.8261 184.364 31.6478C184.364 34.4418 183.149 36.9749 180.719 39.2472C178.289 41.5197 174.82 42.6559 170.313 42.6557H147.615L155.483 7.34356ZM160.736 35.0681H166.819C171.108 35.0681 173.253 33.7032 173.254 30.9733C173.254 30.0097 172.944 29.2509 172.324 28.697C171.704 28.143 170.438 27.866 168.528 27.866H162.345L160.736 35.0681ZM163.828 21.1456H167.699C169.374 21.1456 170.669 21.0332 171.582 20.8083C172.469 20.6007 173.251 20.1021 173.794 19.3993C174.355 18.6849 174.636 17.9663 174.636 17.2435C174.636 16.3762 174.33 15.7018 173.719 15.22C173.107 14.7383 171.904 14.4975 170.112 14.4975H165.26L163.828 21.1456Z" fill="white"/>
<path d="M205.428 7.34277L203.97 14.0873H193.74L195.173 7.34277H205.428Z" fill="#009345" stroke="white" stroke-miterlimit="10"/>
<path d="M203.317 17.0996L197.586 42.656H187.305L193.011 17.0996H203.317Z" fill="white"/>
<path d="M227.045 17.0991L225.487 24.1086H220.133L218.172 33.1413C218.036 33.5376 217.968 33.9525 217.971 34.3697C217.971 35.5259 218.767 36.1041 220.359 36.1041C220.862 36.1041 221.918 35.9515 223.526 35.6463L221.993 42.6558C218.91 43.0571 216.647 43.2578 215.206 43.2581C212.341 43.2581 210.309 42.5997 209.111 41.2829C207.913 39.9664 207.314 38.5292 207.314 36.9712C207.314 36.4575 207.557 35.0846 208.043 32.8523L209.953 24.1086H206.283L207.791 17.0991H211.536L212.416 13.1005L223.853 7.63281L221.742 17.0991H227.045Z" fill="white"/>
<path d="M268.62 17.5564L257.41 18.7367C256.387 15.9426 254.309 14.5455 251.176 14.5456C248.109 14.5456 245.68 16.031 243.887 19.0018C242.116 21.8935 241.187 25.1875 241.197 28.5404C241.197 30.4997 241.863 32.1417 243.195 33.4662C244.528 34.791 246.224 35.4534 248.285 35.4534H248.386C250.732 35.4534 252.793 34.8754 254.569 33.7192L255.399 29.9374H248.436L250.095 22.5667H267.288L263.593 39.1629C257.862 41.893 252.181 43.258 246.551 43.2578C241.474 43.2578 237.448 41.941 234.473 39.3075C231.499 36.674 230.011 32.9725 230.012 28.2031C230.012 24.2208 230.959 20.5676 232.852 17.2434C234.686 13.9768 237.466 11.2875 240.858 9.49924C244.301 7.66076 248.252 6.74142 252.709 6.74121C261.423 6.7412 266.726 10.3463 268.62 17.5564Z" fill="#009345" stroke="white" stroke-miterlimit="10"/>
<path d="M288.251 16.5205C293.027 16.5205 296.508 17.6767 298.695 19.989C300.837 22.1901 302.011 25.0972 301.975 28.1066C301.975 30.4671 301.347 32.8678 300.09 35.3087C298.843 37.7395 296.87 39.7602 294.422 41.1137C291.9 42.5431 288.795 43.2578 285.109 43.2576C280.434 43.2576 276.982 42.1535 274.753 39.9454C272.524 37.7377 271.41 34.9878 271.41 31.6956C271.419 29.0785 272.105 26.5043 273.408 24.2044C274.719 21.817 276.734 19.8524 279.202 18.5559C281.732 17.1991 284.749 16.5207 288.251 16.5205ZM285.763 36.6335C287.673 36.6335 289.189 35.6981 290.312 33.8273C291.442 31.9322 292.023 29.7828 291.996 27.6006C291.996 25.947 291.569 24.7868 290.714 24.1201C289.921 23.4752 288.914 23.1209 287.874 23.1204C285.712 23.1204 284.091 24.0598 283.01 25.9386C281.964 27.6928 281.406 29.6752 281.389 31.6956C281.389 33.1087 281.812 34.285 282.658 35.2243C283.504 36.1638 284.539 36.6335 285.763 36.6335Z" fill="#009345" stroke="white" stroke-miterlimit="10"/>
<path d="M46.7948 24.6737C46.7948 24.6737 51.0237 23.3049 50.9329 20.0722C50.8705 17.8521 49.332 15.7855 47.2209 14.8691C45.1097 13.9527 42.6017 14.0944 40.462 14.9476C39.9894 15.1607 39.5352 15.4093 39.1035 15.691C39.4375 15.6413 39.7743 15.6118 40.1121 15.6028C41.161 15.5667 42.2046 15.7594 43.1643 16.1664C45.1795 17.036 46.5752 18.9917 46.6374 21.0329C46.6904 22.775 45.5523 23.9447 44.496 24.6514C45.5927 25.2992 46.7985 26.4046 46.8494 28.1469C46.909 30.1881 45.6321 32.217 43.672 33.1954C42.7276 33.6593 41.6846 33.9093 40.6235 33.926C40.1762 33.9365 39.7286 33.9117 39.2855 33.8517C39.8332 34.1811 40.4083 34.4667 41.0048 34.7057C43.1884 35.4499 45.7007 35.4649 47.7586 34.4433C49.8165 33.4217 51.2395 31.2804 51.1799 29.0602C51.093 25.8275 46.7948 24.6737 46.7948 24.6737Z" fill="#138145" stroke="white" stroke-miterlimit="10"/>
<path d="M43.2582 32.4368C44.8851 31.6248 46.0072 29.9276 45.956 28.1706C45.8813 25.6122 42.4774 24.7064 42.4774 24.7064C42.4774 24.7064 45.8218 23.6158 45.7439 21.0576C45.6905 19.3005 44.469 17.6676 42.7965 16.9459C41.1239 16.2242 39.1393 16.3406 37.4474 17.0195C35.7554 17.6984 27.9501 23.6023 27.041 25.129C28.0396 26.6034 36.1839 32.0707 37.9135 32.6559C39.6431 33.2412 41.6314 33.2488 43.2582 32.4368Z" fill="#009345" stroke="white" stroke-miterlimit="10"/>
<path d="M36.5934 38.7591C36.3721 38.3082 36.114 37.8748 35.8214 37.4629C36.049 38.7773 35.8754 40.1267 35.3215 41.3487C34.4141 43.2799 32.3734 44.6174 30.2433 44.6769L30.2319 44.6772C28.4201 44.7229 27.2033 43.6348 26.4674 42.6247C25.7914 43.6758 24.638 44.8313 22.8197 44.8801L22.8111 44.8803C20.6843 44.9338 18.5706 43.7101 17.5515 41.8351C16.873 40.538 16.6326 39.0707 16.8635 37.6367C16.5211 38.16 16.224 38.7093 15.9754 39.2792C15.1989 41.3718 15.1832 43.7793 16.2493 45.7514C17.3153 47.7235 19.5498 49.0871 21.8666 49.0299C25.24 48.9468 26.444 44.8278 26.444 44.8278C26.444 44.8278 27.8724 48.8803 31.2458 48.7933C33.5625 48.7336 35.719 47.2592 36.6753 45.2361C37.6316 43.213 37.4838 40.8096 36.5934 38.7591Z" fill="#138145" stroke="white" stroke-miterlimit="10"/>
<path d="M18.342 41.4403C19.1893 42.9993 20.9603 44.0747 22.7938 44.0255C25.4635 43.954 26.4088 40.6921 26.4088 40.6921C26.4088 40.6921 27.5468 43.8969 30.2164 43.8223C32.0499 43.7711 33.7539 42.6006 34.507 40.9978C35.2601 39.395 35.1387 37.4932 34.4302 35.8718C33.7218 34.2504 27.5609 26.7706 25.9678 25.8994C24.4292 26.8563 18.724 34.661 18.1133 36.3184C17.5026 37.9759 17.4946 39.8814 18.342 41.4403Z" fill="#009345" stroke="white" stroke-miterlimit="10"/>
<path d="M12.095 34.3969H12.0949C11.0461 34.433 10.0024 34.2403 9.04273 33.8333C7.02753 32.9637 5.63187 31.008 5.56971 28.9669C5.51667 27.2246 6.65475 26.055 7.71107 25.3483C6.61439 24.7005 5.40853 23.5951 5.3577 21.8528C5.29803 19.8116 6.57497 17.7828 8.5351 16.8043C9.47955 16.3404 10.5225 16.0904 11.5837 16.0737C12.031 16.0632 12.4784 16.088 12.9215 16.1479C12.3738 15.8186 11.7988 15.533 11.2023 15.294C9.01864 14.5498 6.50632 14.5348 4.44842 15.5564C2.39052 16.578 0.967596 18.7192 1.02719 20.9395C1.11403 24.1722 5.4122 25.326 5.4122 25.326C5.4122 25.326 1.18334 26.6948 1.27411 29.9275C1.3365 32.1476 2.87502 34.2142 4.98617 35.1306C7.09732 36.047 9.60532 35.9053 11.7451 35.0521C12.2176 34.839 12.6719 34.5905 13.1035 34.3087C12.7696 34.3584 12.4328 34.3879 12.095 34.3969Z" fill="#138145" stroke="white" stroke-miterlimit="10"/>
<path d="M8.94745 17.5623C7.32063 18.3743 6.19844 20.0715 6.24974 21.8285C6.32442 24.3869 9.72829 25.2927 9.72829 25.2927C9.72829 25.2927 6.38392 26.3833 6.46177 28.9416C6.51523 30.6985 7.73667 32.3315 9.40921 33.0532C11.0818 33.7749 13.0664 33.6585 14.7583 32.9796C16.4503 32.3007 24.2556 26.3968 25.1647 24.8701C24.1661 23.3957 16.0218 17.9284 14.2922 17.3432C12.5626 16.758 10.5743 16.7503 8.94745 17.5623Z" fill="#009345" stroke="white" stroke-miterlimit="10"/>
<path d="M35.9572 4.248C34.8912 2.27593 32.6567 0.912361 30.3399 0.969504C26.9664 1.05268 25.7625 5.17161 25.7625 5.17161C25.7625 5.17161 24.334 1.1191 20.9607 1.20613C18.6439 1.26589 16.4874 2.74025 15.5312 4.76334C14.5749 6.78643 14.7227 9.18983 15.6131 11.2404C15.8344 11.6912 16.0925 12.1247 16.385 12.5365C16.1574 11.2222 16.331 9.87275 16.885 8.6507C17.7924 6.71954 19.8331 5.38207 21.9632 5.32257L21.9746 5.32228C23.7864 5.27657 25.0032 6.3646 25.7391 7.3747C26.415 6.32367 27.5685 5.16809 29.3868 5.11935L29.3953 5.11912C31.5221 5.06547 33.6358 6.28924 34.655 8.1643C35.3335 9.46143 35.5739 10.9288 35.343 12.3628C35.6854 11.8395 35.9824 11.2901 36.231 10.7202C37.0076 8.6276 37.0233 6.22009 35.9572 4.248Z" fill="#138145" stroke="white" stroke-miterlimit="10"/>
<path d="M33.8647 8.55947C33.0174 7.0005 31.2464 5.92511 29.4129 5.97428C26.7432 6.04583 25.7979 9.30775 25.7979 9.30775C25.7979 9.30775 24.6599 6.10287 21.9903 6.17746C20.1568 6.22869 18.4528 7.39922 17.6997 9.002C16.9466 10.6048 17.068 12.5067 17.7765 14.128C18.4849 15.7494 24.6458 23.2292 26.2389 24.1004C27.7775 23.1435 33.4827 15.3388 34.0934 13.6814C34.7041 12.0239 34.7121 10.1184 33.8647 8.55947Z" fill="#009345" stroke="white" stroke-miterlimit="10"/>
</svg>
