<svg width="337" height="56" viewBox="0 0 337 56" fill="none" xmlns="http://www.w3.org/2000/svg">
<path d="M83.973 8.30671H102.859C104.749 8.28451 106.639 8.38321 108.516 8.60213C110.032 8.81173 111.487 9.31935 112.791 10.0934C114.133 10.8608 115.243 11.9528 116.01 13.2608C116.777 14.5688 117.174 16.0471 117.163 17.5487C117.156 19.5593 116.518 21.521 115.333 23.1774C114.113 24.9418 112.171 26.218 109.508 27.006V27.1134C113.885 28.3853 116.073 31.1526 116.073 35.4153C116.073 38.5317 114.723 41.3571 112.022 43.8916C109.322 46.4263 105.466 47.6935 100.456 47.6933H75.2285L83.973 8.30671ZM89.812 39.2303H96.5729C101.341 39.2303 103.725 37.7078 103.725 34.663C103.725 33.5882 103.38 32.7419 102.691 32.124C102.002 31.5061 100.596 31.1972 98.4727 31.1971H91.6L89.812 39.2303ZM93.2484 23.7013H97.5507C99.413 23.7013 100.852 23.5759 101.867 23.3251C102.852 23.0935 103.722 22.5374 104.326 21.7535C104.949 20.9566 105.261 20.1551 105.262 19.349C105.262 18.3816 104.922 17.6293 104.242 17.092C103.562 16.5547 102.225 16.2861 100.233 16.2861H94.8408L93.2484 23.7013Z" fill="#1C1C1C"/>
<path d="M137.137 19.1884L130.768 47.6936H119.342L125.684 19.1884H137.137Z" fill="#1C1C1C"/>
<path d="M139.486 8.30627L137.864 15.829H126.494L128.087 8.30627H139.486Z" fill="#009345" stroke="#1C1C1C" stroke-width="2" stroke-miterlimit="10"/>
<path d="M163.51 19.1877L161.778 27.006H155.827L153.648 37.0809C153.497 37.523 153.422 37.9857 153.425 38.4511C153.425 39.7407 154.309 40.3855 156.079 40.3856C156.638 40.3856 157.811 40.2154 159.599 39.875L157.895 47.6933C154.468 48.1408 151.953 48.3648 150.352 48.365C147.167 48.365 144.908 47.6307 143.577 46.162C142.245 44.6935 141.579 43.0905 141.579 41.3528C141.579 40.7798 141.849 39.2484 142.389 36.7586L144.513 27.006H140.434L142.11 19.1877H146.273L147.25 14.7278L159.962 8.62915L157.615 19.1877H163.51Z" fill="#1C1C1C"/>
<path d="M172.926 8.30671H191.812C193.703 8.28451 195.593 8.3832 197.469 8.60213C198.986 8.81173 200.441 9.31935 201.744 10.0934C203.086 10.8608 204.196 11.9528 204.963 13.2608C205.73 14.5688 206.128 16.0471 206.116 17.5487C206.109 19.5593 205.471 21.521 204.286 23.1774C203.066 24.9418 201.124 26.218 198.461 27.006V27.1134C202.838 28.3853 205.026 31.1526 205.027 35.4153C205.027 38.5317 203.676 41.3571 200.976 43.8916C198.275 46.4263 194.419 47.6935 189.409 47.6933H164.182L172.926 8.30671ZM178.765 39.2303H185.526C190.294 39.2303 192.678 37.7078 192.678 34.663C192.678 33.5882 192.334 32.7419 191.644 32.124C190.955 31.5061 189.549 31.1972 187.426 31.1971H180.553L178.765 39.2303ZM182.201 23.7013H186.504C188.366 23.7013 189.805 23.5759 190.82 23.3251C191.806 23.0935 192.675 22.5374 193.279 21.7535C193.903 20.9566 194.215 20.1551 194.215 19.349C194.215 18.3816 193.875 17.6293 193.195 17.092C192.515 16.5547 191.178 16.2861 189.186 16.2861H183.794L182.201 23.7013Z" fill="#1C1C1C"/>
<path d="M228.437 8.30627L226.818 15.829H215.447L217.04 8.30627H228.437Z" fill="#009345" stroke="#1C1C1C" stroke-width="2" stroke-miterlimit="10"/>
<path d="M226.092 19.1884L219.723 47.6936H208.295L214.637 19.1884H226.092Z" fill="#1C1C1C"/>
<path d="M252.465 19.1877L250.733 27.006H244.782L242.603 37.0809C242.452 37.523 242.377 37.9857 242.38 38.4511C242.38 39.7407 243.264 40.3855 245.034 40.3856C245.593 40.3856 246.766 40.2154 248.554 39.875L246.85 47.6933C243.423 48.1408 240.908 48.3648 239.306 48.365C236.122 48.365 233.863 47.6307 232.532 46.162C231.2 44.6935 230.534 43.0905 230.534 41.3528C230.534 40.7798 230.804 39.2484 231.344 36.7586L233.468 27.006H229.389L231.065 19.1877H235.228L236.205 14.7278L248.917 8.62915L246.57 19.1877H252.465Z" fill="#1C1C1C"/>
<path d="M298.674 19.6981L286.214 21.0146C285.078 17.898 282.768 16.3398 279.285 16.3398C275.877 16.3398 273.176 17.9966 271.183 21.3102C269.215 24.5356 268.183 28.2097 268.194 31.9494C268.194 34.1348 268.934 35.9662 270.415 37.4436C271.896 38.9212 273.782 39.6601 276.072 39.6601H276.184C278.791 39.6601 281.082 39.0153 283.057 37.7258L283.979 33.5076H276.24L278.084 25.2865H297.193L293.086 43.7976C286.717 46.8427 280.403 48.3652 274.145 48.365C268.501 48.365 264.027 46.8963 260.721 43.9589C257.414 41.0215 255.761 36.8929 255.762 31.5733C255.762 27.1314 256.814 23.0566 258.919 19.349C260.957 15.7054 264.047 12.7058 267.817 10.7112C271.644 8.6606 276.035 7.63518 280.989 7.63495C290.674 7.63494 296.569 11.656 298.674 19.6981Z" fill="#009345" stroke="#1C1C1C" stroke-width="2" stroke-miterlimit="10"/>
<path d="M320.494 18.5429C325.802 18.5429 329.671 19.8325 332.102 22.4116C334.482 24.8667 335.788 28.1093 335.748 31.4658C335.748 34.0988 335.049 36.7765 333.652 39.499C332.266 42.2103 330.074 44.4641 327.352 45.9738C324.549 47.5682 321.099 48.3653 317.001 48.365C311.805 48.365 307.968 47.1336 305.491 44.6707C303.014 42.2083 301.775 39.141 301.775 35.469C301.785 32.5499 302.548 29.6787 303.996 27.1134C305.453 24.4505 307.693 22.2593 310.436 20.8132C313.248 19.2999 316.601 18.5431 320.494 18.5429ZM317.728 40.9766C319.851 40.9766 321.537 39.9333 322.785 37.8466C324.04 35.7329 324.686 33.3355 324.656 30.9015C324.656 29.0571 324.181 27.7631 323.231 27.0194C322.35 26.3001 321.231 25.905 320.075 25.9043C317.672 25.9043 315.87 26.9521 314.669 29.0477C313.506 31.0044 312.885 33.2155 312.867 35.469C312.867 37.0452 313.337 38.3571 314.278 39.4048C315.218 40.4527 316.368 40.9767 317.728 40.9766Z" fill="#009345" stroke="#1C1C1C" stroke-width="2" stroke-miterlimit="10"/>
<path d="M52.121 27.6364C52.121 27.6364 56.8213 26.1096 56.7204 22.5039C56.651 20.0276 54.941 17.7226 52.5945 16.7004C50.248 15.6783 47.4604 15.8363 45.0822 16.788C44.5569 17.0257 44.052 17.3029 43.5723 17.6172C43.9434 17.5617 44.3179 17.5289 44.6933 17.5188C45.8591 17.4785 47.0191 17.6935 48.0857 18.1475C50.3256 19.1174 51.8768 21.2987 51.9459 23.5754C52.0049 25.5186 50.7399 26.8232 49.5659 27.6115C50.7848 28.334 52.1251 29.567 52.1816 31.5103C52.2479 33.7871 50.8286 36.05 48.65 37.1413C47.6003 37.6587 46.4411 37.9375 45.2617 37.9562C44.7646 37.968 44.267 37.9402 43.7746 37.8734C44.3833 38.2407 45.0224 38.5593 45.6855 38.8259C48.1125 39.6559 50.9049 39.6727 53.1922 38.5332C55.4795 37.3938 57.0611 35.0054 56.9948 32.529C56.8983 28.9233 52.121 27.6364 52.121 27.6364Z" fill="#138145" stroke="#1C1C1C" stroke-width="2" stroke-miterlimit="10"/>
<path d="M48.1911 36.2954C49.9992 35.3897 51.2465 33.4968 51.1895 31.537C51.1065 28.6834 47.3232 27.673 47.3232 27.673C47.3232 27.673 51.0404 26.4567 50.9538 23.6032C50.8944 21.6435 49.5368 19.8221 47.6778 19.0171C45.8188 18.2122 43.613 18.342 41.7324 19.0992C39.8519 19.8564 31.1765 26.4416 30.166 28.1444C31.2759 29.7889 40.3281 35.8871 42.2505 36.5398C44.1729 37.1926 46.3829 37.2011 48.1911 36.2954Z" fill="#009345" stroke="#1C1C1C" stroke-width="2" stroke-miterlimit="10"/>
<path d="M40.782 43.3468C40.5361 42.8439 40.2492 42.3605 39.9241 41.9011C40.177 43.3671 39.984 44.8722 39.3683 46.2353C38.3598 48.3892 36.0916 49.881 33.7241 49.9474L33.7114 49.9478C31.6976 49.9987 30.3452 48.7851 29.5272 47.6585C28.776 48.8308 27.4939 50.1197 25.4729 50.1741L25.4634 50.1743C23.0995 50.234 20.7502 48.8691 19.6175 46.7778C18.8633 45.331 18.5961 43.6944 18.8528 42.0949C18.4722 42.6786 18.142 43.2913 17.8657 43.927C17.0026 46.261 16.9852 48.9463 18.17 51.146C19.3549 53.3456 21.8385 54.8665 24.4136 54.8028C28.1631 54.71 29.5012 50.1158 29.5012 50.1158C29.5012 50.1158 31.0889 54.6359 34.8383 54.5388C37.4133 54.4722 39.8102 52.8277 40.8731 50.5712C41.936 48.3147 41.7717 45.6339 40.782 43.3468Z" fill="#138145" stroke="#1C1C1C" stroke-width="2" stroke-miterlimit="10"/>
<path d="M20.4981 46.3373C21.4399 48.0761 23.4083 49.2756 25.4462 49.2207C28.4135 49.1409 29.4641 45.5026 29.4641 45.5026C29.4641 45.5026 30.729 49.0773 33.6962 48.9941C35.7341 48.937 37.628 47.6314 38.4651 45.8437C39.3022 44.0559 39.1672 41.9346 38.3797 40.1262C37.5923 38.3177 30.7447 29.9749 28.974 29.0031C27.2639 30.0705 20.9227 38.7756 20.2439 40.6244C19.5651 42.4731 19.5563 44.5984 20.4981 46.3373Z" fill="#009345" stroke="#1C1C1C" stroke-width="2" stroke-miterlimit="10"/>
<path d="M13.5536 38.4811H13.5534C12.3877 38.5214 11.2277 38.3065 10.1611 37.8525C7.92123 36.8826 6.36999 34.7013 6.3009 32.4246C6.24194 30.4814 7.5069 29.1768 8.68097 28.3885C7.46204 27.666 6.12175 26.433 6.06525 24.4896C5.99893 22.2129 7.41822 19.95 9.59686 18.8587C10.6466 18.3412 11.8058 18.0624 12.9853 18.0438C13.4825 18.032 13.9798 18.0597 14.4722 18.1266C13.8635 17.7592 13.2244 17.4407 12.5614 17.1741C10.1343 16.344 7.34191 16.3273 5.05461 17.4668C2.76731 18.6062 1.18576 20.9946 1.252 23.471C1.34853 27.0767 6.12583 28.3636 6.12583 28.3636C6.12583 28.3636 1.42555 29.8904 1.52645 33.496C1.59579 35.9724 3.30581 38.2774 5.6523 39.2995C7.9988 40.3217 10.7864 40.1637 13.1647 39.2119C13.6899 38.9743 14.1948 38.6971 14.6745 38.3828C14.3034 38.4383 13.929 38.4711 13.5536 38.4811Z" fill="#138145" stroke="#1C1C1C" stroke-width="2" stroke-miterlimit="10"/>
<path d="M10.055 19.7046C8.24684 20.6103 6.99956 22.5032 7.05656 24.463C7.13957 27.3166 10.9229 28.3269 10.9229 28.3269C10.9229 28.3269 7.20571 29.5433 7.29224 32.3968C7.35166 34.3565 8.70926 36.1779 10.5682 36.9829C12.4272 37.7878 14.6331 37.658 16.5137 36.9008C18.3942 36.1435 27.0696 29.5584 28.0801 27.8556C26.9702 26.2111 17.918 20.1129 15.9956 19.4602C14.0732 18.8074 11.8632 18.7989 10.055 19.7046Z" fill="#009345" stroke="#1C1C1C" stroke-width="2" stroke-miterlimit="10"/>
<path d="M40.0767 4.85403C38.8918 2.65441 36.4082 1.13351 33.8331 1.19724C30.0837 1.29002 28.7455 5.88421 28.7455 5.88421C28.7455 5.88421 27.1578 1.3641 23.4084 1.46117C20.8334 1.52783 18.4365 3.1723 17.3736 5.42883C16.3107 7.68535 16.4751 10.3661 17.4647 12.6532C17.7106 13.1561 17.9975 13.6395 18.3227 14.0989C18.0697 12.6329 18.2627 11.1278 18.8784 9.76473C19.8869 7.61075 22.1551 6.11895 24.5226 6.05258L24.5354 6.05226C26.5491 6.00128 27.9015 7.21485 28.7195 8.3415C29.4708 7.1692 30.7528 5.88028 32.7738 5.82591L32.7833 5.82566C35.1472 5.76582 37.4965 7.1308 38.6292 9.22221C39.3834 10.669 39.6507 12.3056 39.3939 13.9051C39.7746 13.3214 40.1047 12.7087 40.381 12.073C41.2441 9.73897 41.2616 7.05367 40.0767 4.85403Z" fill="#138145" stroke="#1C1C1C" stroke-width="2" stroke-miterlimit="10"/>
<path d="M37.7492 9.66276C36.8074 7.92391 34.839 6.72444 32.8011 6.77927C29.8338 6.85909 28.7831 10.4974 28.7831 10.4974C28.7831 10.4974 27.5183 6.92271 24.5511 7.0059C22.5132 7.06305 20.6192 8.36863 19.7822 10.1563C18.9451 11.9441 19.0801 14.0654 19.8676 15.8738C20.655 17.6823 27.5026 26.0252 29.2733 26.9969C30.9834 25.9295 37.3246 17.2244 38.0034 15.3756C38.6822 13.5269 38.691 11.4016 37.7492 9.66276Z" fill="#009345" stroke="#1C1C1C" stroke-width="2" stroke-miterlimit="10"/>
</svg>
