<svg width="42" height="42" viewBox="0 0 42 42" fill="none" xmlns="http://www.w3.org/2000/svg">
<path d="M0 12.8C0 8.31958 0 6.07937 0.871948 4.36808C1.63893 2.86278 2.86278 1.63893 4.36808 0.871948C6.07937 0 8.31958 0 12.8 0H29.2C33.6804 0 35.9206 0 37.6319 0.871948C39.1372 1.63893 40.3611 2.86278 41.1281 4.36808C42 6.07937 42 8.31958 42 12.8V29.2C42 33.6804 42 35.9206 41.1281 37.6319C40.3611 39.1372 39.1372 40.3611 37.6319 41.1281C35.9206 42 33.6804 42 29.2 42H12.8C8.31958 42 6.07937 42 4.36808 41.1281C2.86278 40.3611 1.63893 39.1372 0.871948 37.6319C0 35.9206 0 33.6804 0 29.2V12.8Z" fill="#FBFBFB"/>
<path d="M18.4758 12.3703C14.9977 12.989 12.2133 15.6515 11.4493 19.0828C10.5633 23.0859 12.5274 27.1312 16.2118 28.8984C18.6118 30.0468 21.3915 30.0515 23.7821 28.9031C24.068 28.7625 24.4618 28.5515 24.6493 28.4297C25.2493 28.0453 25.343 27.9047 25.1696 27.6562C25.0477 27.4828 22.629 24.6468 22.5212 24.5484C22.3946 24.4406 22.2165 24.4453 22.0149 24.5672C21.2274 25.05 19.9805 25.214 19.0055 24.9656C18.0727 24.7312 17.2243 24.1593 16.6946 23.414C15.654 21.9468 15.654 20.0531 16.6946 18.5859C17.2243 17.8359 18.0774 17.2687 19.0102 17.0343C19.3149 16.9593 19.4883 16.889 19.5446 16.8234C19.6196 16.7297 19.6243 16.5562 19.6243 14.625C19.6243 12.5765 19.6243 12.525 19.5258 12.4031C19.4415 12.3 19.3946 12.2812 19.1883 12.2859C19.0524 12.2859 18.7337 12.3281 18.4758 12.3703ZM18.968 14.6625V16.3453L18.504 16.4953C17.0227 16.9828 15.893 18.1593 15.4196 19.7109C15.3024 20.1047 15.293 20.189 15.293 21C15.293 21.8109 15.3024 21.8953 15.4196 22.289C15.9212 23.925 17.093 25.0968 18.7102 25.575C19.2774 25.7437 20.304 25.7859 20.8946 25.664C21.218 25.5984 21.7665 25.4203 22.1602 25.2468C22.2165 25.2234 22.5024 25.5328 23.318 26.4797C23.918 27.1781 24.4055 27.764 24.4055 27.7828C24.4055 27.8578 23.5665 28.3031 23.0227 28.5234C22.5633 28.7062 21.7758 28.9265 21.218 29.025C20.7024 29.114 19.1977 29.1 18.654 29.0015C17.2102 28.7343 15.9962 28.1812 14.9087 27.3047C13.3571 26.039 12.3774 24.3703 11.9977 22.3406C11.8993 21.8015 11.8852 20.2968 11.9743 19.7812C12.0727 19.2187 12.293 18.4312 12.4758 17.9765C13.3477 15.8156 15.0962 14.1422 17.304 13.3593C17.7821 13.1906 18.5883 12.9937 18.818 12.989L18.968 12.9843V14.6625Z" fill="#009345" stroke="#009345"/>
<path d="M21.4781 11.3984C21.375 11.5297 21.375 11.5437 21.375 13.625C21.375 15.5562 21.3797 15.7297 21.4594 15.8234C21.5109 15.889 21.6844 15.9594 21.9891 16.0344C23.1984 16.339 24.1172 17.089 24.6984 18.2562C24.8203 18.4953 24.9328 18.664 24.9984 18.6922C25.0875 18.7297 25.5094 18.6594 27.0281 18.3359C28.0828 18.1156 29.025 17.914 29.1187 17.8859C29.4328 17.8062 29.4609 17.6187 29.25 17.0469C28.4484 14.8719 26.8312 13.0906 24.7687 12.1015C23.9203 11.6937 22.7344 11.3562 21.9469 11.2953C21.5859 11.2672 21.5766 11.2719 21.4781 11.3984ZM22.6969 12.0781C24.9422 12.575 26.8359 13.9578 28.0172 15.9594C28.2609 16.3765 28.6687 17.2719 28.6266 17.3094C28.6172 17.3187 27.9141 17.4734 27.0656 17.6562C26.2172 17.8344 25.4812 17.9937 25.4297 18.0031C25.3547 18.0219 25.3078 17.975 25.1953 17.764C24.6422 16.7 23.5969 15.8375 22.4297 15.4719L22.0312 15.35V13.6672V11.9844H22.1625C22.2328 11.9844 22.4719 12.0265 22.6969 12.0781Z" fill="#009345" stroke="#009345"/>
<path d="M27.2562 20.0671C24.9265 20.564 25.0765 20.489 25.0765 21.1359C25.0765 21.9093 24.8 22.7062 24.2656 23.475C24.0594 23.7656 24.0312 23.8312 24.0734 23.9343C24.1437 24.1265 26.7734 27.1781 26.9 27.2156C27.0922 27.2718 27.2422 27.1734 27.5984 26.7656C28.3297 25.9218 28.9672 24.8015 29.314 23.7656C29.6937 22.6265 29.8484 21.2531 29.7172 20.1562C29.675 19.7718 29.5765 19.6359 29.3469 19.6453C29.2812 19.6453 28.339 19.8375 27.2562 20.0671ZM29.0797 21.1406C29.075 21.9421 29.0281 22.3125 28.8265 23.0859C28.6015 23.9437 28.2453 24.7359 27.7625 25.4671C27.5 25.8656 27.0453 26.4187 27.0031 26.3953C26.989 26.3859 26.4875 25.8093 25.8922 25.1156L24.8094 23.85L24.9734 23.6062C25.3578 23.0437 25.6719 22.1484 25.7187 21.4781C25.7375 21.2437 25.7703 21.075 25.8031 21.0656C25.9625 21 28.8687 20.3953 28.9672 20.4046L29.0844 20.414L29.0797 21.1406Z" fill="#009345" stroke="#009345"/>
</svg>
