<svg width="26" height="27" viewBox="0 0 26 27" fill="none" xmlns="http://www.w3.org/2000/svg">
<path d="M5.90718 0.880862C5.7396 0.96719 5.59741 1.08906 5.50601 1.22617L5.35874 1.43946L5.34351 3.59766C5.33335 5.07031 5.34351 5.8168 5.38413 5.94883C5.45015 6.17227 5.6939 6.4668 5.9021 6.57344C5.98335 6.61406 6.19155 6.65977 6.37437 6.68008C6.96851 6.73594 7.40523 6.54297 7.63374 6.12149C7.74546 5.91328 7.74546 5.86758 7.76069 3.88711C7.77593 1.64766 7.76069 1.44453 7.50679 1.13985C7.27827 0.860549 7.01421 0.753909 6.54702 0.753909C6.23726 0.753909 6.11538 0.779299 5.90718 0.880862Z" fill="#009345"/>
<path d="M19.0674 0.825005C18.8643 0.916411 18.6409 1.14493 18.5393 1.36329C18.4682 1.51563 18.4581 1.83047 18.4428 3.50626C18.4225 5.98946 18.4377 6.08086 18.91 6.46172C19.0827 6.60391 19.1436 6.61915 19.5397 6.63946C20.0374 6.65977 20.2913 6.59883 20.5198 6.40586C20.8651 6.11133 20.8702 6.10118 20.8702 3.69922C20.8702 1.55626 20.8702 1.53594 20.7584 1.3125C20.6924 1.19063 20.5553 1.01797 20.4487 0.936724C20.2608 0.789458 20.2252 0.779302 19.7377 0.764067C19.3823 0.758989 19.1741 0.774223 19.0674 0.825005Z" fill="#009345"/>
<path d="M1.21875 2.90703C0.761719 3.02891 0.345312 3.38945 0.132031 3.84649L0.0253906 4.08008V14.541V25.002L0.1625 25.2914C0.319922 25.6266 0.624609 25.9414 0.954687 26.1039L1.19336 26.2207H13H24.8066L25.0453 26.1039C25.3754 25.9414 25.6801 25.6266 25.8375 25.2914L25.9746 25.002V14.541V4.08008L25.8324 3.7957C25.6699 3.46055 25.3297 3.12539 24.9945 2.97305C24.7711 2.86641 24.6695 2.86133 23.2223 2.84609L21.6836 2.83086V4.52695C21.6836 5.92344 21.6684 6.25859 21.6023 6.45156C21.4195 7 20.8762 7.36563 20.0992 7.46211C19.0074 7.6043 18.2051 7.22852 17.8039 6.39062L17.6465 6.06055L17.6312 4.4457L17.616 2.83594H13.0965H8.58203V4.31875C8.58203 5.92852 8.54648 6.20274 8.31289 6.60391C8.13516 6.90352 7.82031 7.18789 7.46992 7.34531C7.09414 7.52305 6.31211 7.56367 5.86523 7.43164C5.33711 7.2793 4.92578 6.93398 4.68203 6.44141L4.54492 6.16211L4.52969 4.49648L4.51445 2.83594L2.98086 2.84102C1.93984 2.84102 1.37109 2.86133 1.21875 2.90703ZM24.3242 17.0293V24.6211H13H1.67578V17.0293V9.4375H13H24.3242V17.0293Z" fill="#009345"/>
<path d="M13.6957 11.5551C13.6754 11.5703 13.6602 12.2203 13.6602 12.9922C13.6602 14.0129 13.6754 14.409 13.7211 14.4547C13.8074 14.541 16.9152 14.541 17.0016 14.4547C17.0879 14.3684 17.0879 11.6668 17.0016 11.5805C16.9559 11.5348 16.5141 11.5195 15.3359 11.5195C14.4523 11.5195 13.7109 11.5348 13.6957 11.5551Z" fill="#009345"/>
<path d="M18.5707 11.5551C18.5504 11.5703 18.5352 12.2203 18.5352 12.9922C18.5352 14.0129 18.5504 14.409 18.5961 14.4547C18.6824 14.541 21.7902 14.541 21.8766 14.4547C21.9629 14.3684 21.9629 11.6668 21.8766 11.5805C21.8309 11.5348 21.3891 11.5195 20.2109 11.5195C19.3273 11.5195 18.5859 11.5348 18.5707 11.5551Z" fill="#009345"/>
<path d="M3.96672 15.8055C3.92609 15.8512 3.91086 16.2879 3.92102 17.2883L3.93625 18.7051L5.55617 18.7203C6.70891 18.7305 7.19641 18.7152 7.24211 18.6746C7.33859 18.5934 7.34875 15.8918 7.25227 15.7953C7.15578 15.6988 4.04797 15.709 3.96672 15.8055Z" fill="#009345"/>
<path d="M8.84172 15.8055C8.80109 15.8512 8.78586 16.2879 8.79602 17.2883L8.81125 18.7051L10.4312 18.7203C11.5839 18.7305 12.0714 18.7152 12.1171 18.6746C12.2136 18.5934 12.2237 15.8918 12.1273 15.7953C12.0308 15.6988 8.92297 15.709 8.84172 15.8055Z" fill="#009345"/>
<path d="M13.7167 15.8055C13.6761 15.8512 13.6609 16.2879 13.671 17.2883L13.6862 18.7051L15.3062 18.7203C16.4589 18.7305 16.9464 18.7152 16.9921 18.6746C17.0886 18.5934 17.0987 15.8918 17.0023 15.7953C16.9058 15.6988 13.798 15.709 13.7167 15.8055Z" fill="#009345"/>
<path d="M18.5917 15.8055C18.5511 15.8512 18.5359 16.2879 18.546 17.2883L18.5612 18.7051L20.1812 18.7203C21.3339 18.7305 21.8214 18.7152 21.8671 18.6746C21.9636 18.5934 21.9737 15.8918 21.8773 15.7953C21.7808 15.6988 18.673 15.709 18.5917 15.8055Z" fill="#009345"/>
<path d="M4.00156 20.0051C3.91523 20.0508 3.91016 20.1777 3.91016 21.4625C3.91016 22.4934 3.92539 22.8895 3.97109 22.9352C4.0168 22.9809 4.44844 22.9961 5.59102 22.9961C6.9418 22.9961 7.16523 22.9859 7.23125 22.9148C7.30234 22.8488 7.3125 22.6457 7.3125 21.4727C7.3125 20.1219 7.3125 20.1066 7.20078 20.0305C7.1043 19.9594 6.86562 19.9492 5.58594 19.9492C4.66172 19.9492 4.05234 19.9746 4.00156 20.0051Z" fill="#009345"/>
<path d="M8.87656 20.0051C8.79023 20.0508 8.78516 20.1777 8.78516 21.4625C8.78516 22.4934 8.80039 22.8895 8.84609 22.9352C8.8918 22.9809 9.32344 22.9961 10.466 22.9961C11.8168 22.9961 12.0402 22.9859 12.1062 22.9148C12.1773 22.8488 12.1875 22.6457 12.1875 21.4727C12.1875 20.1219 12.1875 20.1066 12.0758 20.0305C11.9793 19.9594 11.7406 19.9492 10.4609 19.9492C9.53672 19.9492 8.92734 19.9746 8.87656 20.0051Z" fill="#009345"/>
<path d="M13.7516 20.0051C13.6652 20.0508 13.6602 20.1777 13.6602 21.4727C13.6602 22.8234 13.6652 22.8945 13.7566 22.9453C13.8176 22.9758 14.427 22.9961 15.3816 22.9961C16.6969 22.9961 16.9152 22.9859 16.9812 22.9148C17.0523 22.8488 17.0625 22.6457 17.0625 21.4727C17.0625 20.1219 17.0625 20.1066 16.9508 20.0305C16.8543 19.9594 16.6156 19.9492 15.3359 19.9492C14.4117 19.9492 13.8023 19.9746 13.7516 20.0051Z" fill="#009345"/>
<path d="M18.6266 20.0051C18.5402 20.0508 18.5352 20.1777 18.5352 21.4727C18.5352 22.8234 18.5402 22.8945 18.6316 22.9453C18.6926 22.9758 19.302 22.9961 20.2566 22.9961C21.5719 22.9961 21.7902 22.9859 21.8562 22.9148C21.9273 22.8488 21.9375 22.6457 21.9375 21.4727C21.9375 20.1219 21.9375 20.1066 21.8258 20.0305C21.7293 19.9594 21.4906 19.9492 20.2109 19.9492C19.2867 19.9492 18.6773 19.9746 18.6266 20.0051Z" fill="#009345"/>
</svg>
