<svg width="20" height="25" viewBox="0 0 20 25" fill="none" xmlns="http://www.w3.org/2000/svg">
<path fill-rule="evenodd" clip-rule="evenodd" d="M0 13C0 7.47715 4.47715 3 10 3C15.5228 3 20 7.47715 20 13C20 18.5228 15.5228 23 10 23C4.47715 23 0 18.5228 0 13Z" fill="#FBFBFB"/>
<path fill-rule="evenodd" clip-rule="evenodd" d="M15.0989 8.67818C15.5792 9.10779 15.6202 9.84535 15.1905 10.3255L9.53228 16.6501C9.31096 16.8974 8.99474 17.0388 8.6628 17.0388C8.33086 17.0388 8.01464 16.8974 7.79332 16.6501L4.96419 13.4878C4.53457 13.0076 4.57558 12.27 5.05578 11.8404C5.53598 11.4108 6.27354 11.4518 6.70315 11.932L8.6628 14.1224L13.4516 8.76977C13.8812 8.28957 14.6187 8.24856 15.0989 8.67818Z" fill="#009345"/>
</svg>
