<svg width="42" height="42" viewBox="0 0 42 42" fill="none" xmlns="http://www.w3.org/2000/svg">
<path d="M0 12.8C0 8.31958 0 6.07937 0.871948 4.36808C1.63893 2.86278 2.86278 1.63893 4.36808 0.871948C6.07937 0 8.31958 0 12.8 0H29.2C33.6804 0 35.9206 0 37.6319 0.871948C39.1372 1.63893 40.3611 2.86278 41.1281 4.36808C42 6.07937 42 8.31958 42 12.8V29.2C42 33.6804 42 35.9206 41.1281 37.6319C40.3611 39.1372 39.1372 40.3611 37.6319 41.1281C35.9206 42 33.6804 42 29.2 42H12.8C8.31958 42 6.07937 42 4.36808 41.1281C2.86278 40.3611 1.63893 39.1372 0.871948 37.6319C0 35.9206 0 33.6804 0 29.2V12.8Z" fill="#FBFBFB"/>
<g clip-path="url(#clip0_226_18047)">
<path d="M18.6328 9.05156C14.2547 9.26719 11.9344 10.1578 10.6219 12.1313C9.47812 13.8516 9 16.4578 9 21C9 25.5422 9.47812 28.1484 10.6219 29.8688C11.7094 31.5 13.4906 32.3859 16.4531 32.7609C17.8266 32.9344 18.6516 32.9766 21 32.9766C24.8812 32.9766 26.8922 32.7234 28.6547 32.0203C29.8125 31.5609 30.7453 30.8156 31.3875 29.8594C32.2453 28.5656 32.6953 26.8594 32.9156 24.0469C32.9953 23.0109 32.9953 18.9891 32.9156 17.9531C32.6953 15.1266 32.25 13.4391 31.3781 12.1313C30.2203 10.3922 28.2656 9.49219 24.9281 9.16406C23.3297 9.00938 20.5359 8.95781 18.6328 9.05156ZM24.2578 11.1047C29.2969 11.5875 30.4453 12.7453 30.9 17.8125C30.9422 18.2672 30.9609 19.3125 30.9609 21C30.9609 22.6875 30.9422 23.7328 30.9 24.1875C30.4406 29.2688 29.2687 30.4406 24.1875 30.9C23.2547 30.9844 18.7453 30.9844 17.8125 30.9C12.7312 30.4406 11.5594 29.2688 11.1 24.1875C11.0156 23.2547 11.0156 18.7453 11.1 17.8125C11.4562 13.8703 12.2672 12.4219 14.5312 11.6766C15.5391 11.3484 16.6547 11.1797 18.75 11.0438C19.2984 11.0109 23.7703 11.0578 24.2578 11.1047Z" fill="#009345"/>
<path d="M21.6378 15.0704C21.3987 15.1547 21.1597 15.3938 21.0706 15.6282C20.9394 15.9891 18.98 26.2407 19.0081 26.4047C19.1534 27.1688 20.0769 27.4969 20.6534 26.986C20.7425 26.911 20.8456 26.7891 20.8831 26.7141C20.9769 26.5407 22.969 16.2844 22.969 15.9891C22.969 15.6938 22.9081 15.5344 22.7206 15.3329C22.43 15.0282 22.0315 14.9297 21.6378 15.0704Z" fill="#009345"/>
<path d="M16.5934 18.0984C16.3215 18.2203 14.2449 20.2781 14.109 20.5594C13.9871 20.8078 13.9871 21.1922 14.109 21.4406C14.2449 21.7219 16.3215 23.7797 16.5934 23.9015C17.259 24.2015 18.0043 23.7047 17.9996 22.964C17.9949 22.65 17.8309 22.4062 17.1184 21.6937L16.434 21L17.1184 20.3062C17.8309 19.5937 17.9949 19.35 17.9996 19.0359C17.9996 18.7594 17.8918 18.5015 17.6902 18.2953C17.3855 17.9953 16.9871 17.9203 16.5934 18.0984Z" fill="#009345"/>
<path d="M24.6654 18.0516C24.4498 18.1172 24.1123 18.4641 24.0514 18.6844C23.9014 19.2141 24.0186 19.4391 24.8811 20.3063L25.5654 21L24.8811 21.6938C24.1686 22.4109 24.0045 22.65 23.9998 22.9688C23.9998 23.5406 24.4592 24 25.0404 24C25.3779 24 25.6217 23.8125 26.7514 22.6734C27.4404 21.9844 27.867 21.5156 27.9139 21.4078C28.0029 21.1875 28.0029 20.8125 27.9139 20.5922C27.8061 20.3344 25.7342 18.2672 25.4342 18.1172C25.1904 17.9953 24.942 17.9719 24.6654 18.0516Z" fill="#009345"/>
</g>
<defs>
<clipPath id="clip0_226_18047">
<rect width="24" height="24" fill="white" transform="translate(9 9)"/>
</clipPath>
</defs>
</svg>
