<svg width="60" height="60" viewBox="0 0 60 60" fill="none" xmlns="http://www.w3.org/2000/svg">
<circle cx="30" cy="30" r="30" fill="#009345"/>
<g clip-path="url(#clip0_352_6875)">
<path d="M39.8546 46.079H18.2421C18.1798 46.0748 18.1211 46.0482 18.0769 46.004C18.0328 45.9599 18.0061 45.9012 18.002 45.8389V15.5214C18.0061 15.4591 18.0328 15.4004 18.0769 15.3562C18.1211 15.3121 18.1798 15.2854 18.2421 15.2812H39.8546C39.9169 15.2855 39.9755 15.3122 40.0197 15.3563C40.0638 15.4005 40.0905 15.4591 40.0948 15.5214V45.8988C40.0343 45.959 39.9744 46.079 39.8546 46.079ZM18.4224 45.5987H39.6144V15.7013H18.4224V45.5987Z" fill="white"/>
<path d="M18.1817 43.7978H15.3602C15.298 43.7935 15.2393 43.7669 15.1952 43.7227C15.1511 43.6786 15.1244 43.62 15.1201 43.5577V13.2401C15.1244 13.1779 15.1511 13.1192 15.1952 13.0751C15.2393 13.031 15.298 13.0043 15.3602 13H36.9727C37.035 13.0042 37.0937 13.0308 37.1379 13.075C37.182 13.1192 37.2087 13.1778 37.2129 13.2401V15.5214C37.2087 15.5837 37.182 15.6424 37.1379 15.6865C37.0937 15.7307 37.035 15.7573 36.9727 15.7615H18.4224V43.6175C18.4049 43.6682 18.3726 43.7124 18.3297 43.7446C18.2867 43.7767 18.2352 43.7952 18.1817 43.7978ZM15.6004 43.3774H18.002V15.5214C18.0062 15.4591 18.0328 15.4004 18.077 15.3562C18.1211 15.3121 18.1798 15.2854 18.2421 15.2812H36.7925V13.4803H15.6004V43.3774Z" fill="white"/>
<path d="M22.6238 28.1888H19.9227C19.8604 28.1846 19.8018 28.1579 19.7576 28.1138C19.7134 28.0696 19.6868 28.0109 19.6826 27.9486V25.247C19.6868 25.1847 19.7134 25.126 19.7576 25.0818C19.8018 25.0377 19.8604 25.011 19.9227 25.0068H22.6238C22.6861 25.011 22.7448 25.0377 22.7889 25.0818C22.8331 25.126 22.8598 25.1847 22.8639 25.247V27.9486C22.8598 28.0109 22.8331 28.0696 22.7889 28.1138C22.7448 28.1579 22.6861 28.1846 22.6238 28.1888ZM20.1024 27.7085H22.3843V25.4272H20.1024V27.7085Z" fill="white"/>
<path d="M26.5268 28.1888H23.8251C23.7628 28.1845 23.7042 28.1578 23.6601 28.1137C23.6159 28.0695 23.5892 28.0109 23.585 27.9486V25.247C23.5892 25.1847 23.6159 25.1261 23.66 25.0819C23.7042 25.0378 23.7628 25.0111 23.8251 25.0068H26.5268C26.5891 25.011 26.6477 25.0377 26.6919 25.0818C26.7361 25.126 26.7627 25.1847 26.7669 25.247V27.9486C26.707 28.0687 26.6472 28.1888 26.5268 28.1888ZM24.0054 27.7085H26.2866V25.4272H24.0054V27.7085Z" fill="white"/>
<path d="M30.3686 28.1888H27.6669C27.6046 28.1846 27.5459 28.1579 27.5017 28.1138C27.4576 28.0696 27.431 28.0109 27.4268 27.9486V25.247C27.4309 25.1847 27.4576 25.126 27.5017 25.0818C27.5459 25.0377 27.6046 25.011 27.6669 25.0068H30.3686C30.4309 25.0111 30.4895 25.0378 30.5336 25.0819C30.5778 25.1261 30.6045 25.1847 30.6087 25.247V27.9486C30.6045 28.0109 30.5778 28.0695 30.5336 28.1136C30.4895 28.1578 30.4309 28.1845 30.3686 28.1888ZM27.9071 27.7085H30.1883V25.4272H27.9071V27.7085Z" fill="white"/>
<path d="M34.2709 28.1888H31.5693C31.507 28.1845 31.4483 28.1578 31.4042 28.1137C31.36 28.0695 31.3334 28.0109 31.3291 27.9486V25.247C31.3334 25.1847 31.36 25.1261 31.4042 25.0819C31.4483 25.0378 31.507 25.0111 31.5693 25.0068H34.2709C34.3332 25.011 34.3919 25.0377 34.436 25.0818C34.4802 25.126 34.5068 25.1847 34.511 25.247V27.9486C34.5068 28.0109 34.4802 28.0696 34.436 28.1138C34.3918 28.1579 34.3332 28.1846 34.2709 28.1888ZM31.7495 27.7085H34.0307V25.4272H31.7495V27.7085Z" fill="white"/>
<path d="M38.1137 28.1888H35.412C35.3497 28.1846 35.291 28.1579 35.2469 28.1138C35.2027 28.0696 35.1761 28.0109 35.1719 27.9486V25.247C35.1761 25.1847 35.2027 25.126 35.2469 25.0818C35.291 25.0377 35.3497 25.011 35.412 25.0068H38.1137C38.176 25.0111 38.2346 25.0378 38.2787 25.0819C38.3229 25.1261 38.3496 25.1847 38.3538 25.247V27.9486C38.3495 28.0109 38.3228 28.0695 38.2787 28.1137C38.2346 28.1578 38.1759 28.1845 38.1137 28.1888ZM35.6522 27.7085H37.9334V25.4272H35.6522V27.7085Z" fill="white"/>
<path d="M25.5655 31.7305H20.1023C20.0387 31.7305 19.9776 31.7052 19.9326 31.6602C19.8876 31.6152 19.8623 31.5542 19.8623 31.4905C19.8623 31.4269 19.8876 31.3658 19.9326 31.3208C19.9776 31.2758 20.0387 31.2505 20.1023 31.2505H25.5655C25.6278 31.2546 25.6866 31.2812 25.7307 31.3254C25.7749 31.3696 25.8016 31.4283 25.8057 31.4906C25.8088 31.5229 25.8048 31.5555 25.7938 31.5861C25.7828 31.6166 25.7652 31.6444 25.7423 31.6673C25.7193 31.6902 25.6915 31.7078 25.661 31.7187C25.6304 31.7297 25.5978 31.7337 25.5655 31.7305Z" fill="white"/>
<path d="M25.5656 32.9915H20.1024C20.0387 32.9915 19.9777 32.9662 19.9326 32.9212C19.8876 32.8761 19.8623 32.8151 19.8623 32.7514C19.8623 32.6877 19.8876 32.6266 19.9326 32.5816C19.9777 32.5365 20.0387 32.5112 20.1024 32.5112H25.5656C25.6279 32.5154 25.6866 32.542 25.7308 32.5862C25.775 32.6304 25.8016 32.689 25.8058 32.7514C25.809 32.7837 25.8049 32.8163 25.7939 32.8469C25.783 32.8775 25.7654 32.9052 25.7424 32.9282C25.7195 32.9512 25.6917 32.9687 25.6611 32.9797C25.6306 32.9906 25.5979 32.9947 25.5656 32.9915Z" fill="white"/>
<path d="M25.5656 35.9932H20.1024C20.0387 35.9932 19.9777 35.9679 19.9326 35.9229C19.8876 35.8779 19.8623 35.8168 19.8623 35.7531C19.8623 35.6894 19.8876 35.6283 19.9326 35.5833C19.9777 35.5382 20.0387 35.5129 20.1024 35.5129H25.5656C25.6279 35.5171 25.6866 35.5438 25.7308 35.5879C25.7749 35.6321 25.8016 35.6908 25.8058 35.7531C25.809 35.7854 25.8049 35.818 25.7939 35.8486C25.783 35.8792 25.7654 35.9069 25.7424 35.9299C25.7195 35.9529 25.6917 35.9704 25.6611 35.9814C25.6306 35.9923 25.5979 35.9964 25.5656 35.9932Z" fill="white"/>
<path d="M36.5517 37.0738H20.1629C20.1313 37.0738 20.1001 37.0676 20.071 37.0555C20.0419 37.0435 20.0154 37.0258 19.9931 37.0035C19.9709 36.9812 19.9532 36.9548 19.9411 36.9256C19.929 36.8965 19.9229 36.8653 19.9229 36.8338C19.9229 36.8023 19.929 36.771 19.9411 36.7419C19.9532 36.7128 19.9709 36.6863 19.9931 36.664C20.0154 36.6418 20.0419 36.6241 20.071 36.612C20.1001 36.6 20.1313 36.5937 20.1629 36.5938H36.6122C36.6745 36.598 36.7331 36.6247 36.7772 36.6688C36.8213 36.7128 36.8481 36.7714 36.8524 36.8337C36.8437 36.9051 36.8073 36.9702 36.7511 37.0151C36.6949 37.06 36.6233 37.0811 36.5517 37.0738Z" fill="white"/>
<path d="M36.5519 38.1544H20.163C20.0993 38.1544 20.0382 38.1291 19.9932 38.084C19.9482 38.039 19.9229 37.9779 19.9229 37.9142C19.9229 37.8505 19.9482 37.7894 19.9932 37.7444C20.0382 37.6994 20.0993 37.6741 20.163 37.6741H36.6124C36.6747 37.6784 36.7333 37.705 36.7774 37.7492C36.8216 37.7933 36.8483 37.8519 36.8525 37.9142C36.8438 37.9856 36.8074 38.0507 36.7512 38.0956C36.695 38.1405 36.6234 38.1616 36.5519 38.1544Z" fill="white"/>
<path d="M36.5519 39.235H20.163C20.0993 39.235 20.0382 39.2097 19.9932 39.1646C19.9481 39.1196 19.9229 39.0585 19.9229 38.9948C19.9229 38.9311 19.9481 38.87 19.9932 38.825C20.0382 38.7799 20.0993 38.7546 20.163 38.7546H36.6124C36.6747 38.7589 36.7333 38.7856 36.7775 38.8298C36.8216 38.8739 36.8483 38.9326 36.8525 38.9948C36.8438 39.0662 36.8074 39.1314 36.7512 39.1762C36.695 39.2211 36.6234 39.2422 36.5519 39.235Z" fill="white"/>
<path d="M36.5519 40.3157H20.163C20.0993 40.3157 20.0382 40.2904 19.9932 40.2454C19.9482 40.2004 19.9229 40.1393 19.9229 40.0756C19.9229 40.0119 19.9482 39.9508 19.9932 39.9058C20.0382 39.8607 20.0993 39.8354 20.163 39.8354H36.6124C36.6747 39.8397 36.7333 39.8663 36.7775 39.9105C36.8216 39.9547 36.8483 40.0133 36.8525 40.0756C36.7921 40.1954 36.7322 40.3157 36.5519 40.3157Z" fill="white"/>
<path d="M36.5519 41.3964H20.163C20.0993 41.3964 20.0382 41.3711 19.9932 41.326C19.9481 41.281 19.9229 41.2199 19.9229 41.1562C19.9229 41.0925 19.9481 41.0314 19.9932 40.9864C20.0382 40.9413 20.0993 40.916 20.163 40.916H36.6124C36.6747 40.9203 36.7333 40.947 36.7775 40.9911C36.8216 41.0353 36.8483 41.0939 36.8525 41.1562C36.7921 41.2763 36.7322 41.3964 36.5519 41.3964Z" fill="white"/>
<path d="M36.5519 42.4769H20.163C20.0993 42.4769 20.0382 42.4516 19.9932 42.4065C19.9482 42.3615 19.9229 42.3004 19.9229 42.2367C19.9229 42.173 19.9482 42.112 19.9932 42.0669C20.0382 42.0219 20.0993 41.9966 20.163 41.9966H36.6124C36.6747 42.0009 36.7333 42.0275 36.7775 42.0717C36.8216 42.1158 36.8483 42.1744 36.8525 42.2367C36.7921 42.3568 36.7322 42.4769 36.5519 42.4769Z" fill="white"/>
<path d="M33.7304 18.4631H19.9227C19.8604 18.459 19.8018 18.4323 19.7576 18.3882C19.7134 18.344 19.6868 18.2853 19.6826 18.223V17.1422C19.6868 17.0799 19.7134 17.0213 19.7576 16.9771C19.8018 16.9329 19.8604 16.9063 19.9227 16.9021H33.7304C33.7927 16.9063 33.8514 16.9329 33.8956 16.9771C33.9397 17.0213 33.9663 17.0799 33.9705 17.1422V18.223C33.9663 18.2853 33.9397 18.344 33.8956 18.3881C33.8514 18.4323 33.7927 18.459 33.7304 18.4631ZM20.1024 18.0427H33.4902V17.4423H20.1024V18.0427Z" fill="white"/>
<path d="M28.0871 20.1439H20.163C20.0993 20.1439 20.0382 20.1186 19.9932 20.0736C19.9481 20.0285 19.9229 19.9674 19.9229 19.9038C19.9229 19.8401 19.9481 19.779 19.9932 19.7339C20.0382 19.6889 20.0993 19.6636 20.163 19.6636H28.0871C28.1494 19.6678 28.208 19.6944 28.2522 19.7386C28.2964 19.7827 28.323 19.8414 28.3272 19.9037C28.3304 19.936 28.3264 19.9687 28.3154 19.9993C28.3045 20.0298 28.2869 20.0576 28.2639 20.0806C28.2409 20.1036 28.2132 20.1212 28.1826 20.1321C28.152 20.1431 28.1194 20.1471 28.0871 20.1439Z" fill="white"/>
<path d="M28.0871 21.4046H20.163C20.0993 21.4046 20.0382 21.3793 19.9932 21.3343C19.9482 21.2892 19.9229 21.2281 19.9229 21.1645C19.9229 21.1008 19.9482 21.0397 19.9932 20.9947C20.0382 20.9496 20.0993 20.9243 20.163 20.9243H28.0871C28.1508 20.9243 28.2118 20.9496 28.2569 20.9947C28.3019 21.0397 28.3272 21.1008 28.3272 21.1645C28.3272 21.2281 28.3019 21.2892 28.2569 21.3343C28.2118 21.3793 28.1508 21.4046 28.0871 21.4046Z" fill="white"/>
<path d="M42.6161 39.8354C42.5538 39.8313 42.4951 39.8046 42.451 39.7604C42.4068 39.7163 42.3802 39.6576 42.376 39.5953V25.487C42.376 25.4233 42.4013 25.3622 42.4463 25.3172C42.4913 25.2721 42.5524 25.2468 42.6161 25.2468C42.6798 25.2468 42.7409 25.2721 42.786 25.3172C42.831 25.3622 42.8563 25.4233 42.8563 25.487V39.5953C42.7964 39.7153 42.7359 39.8354 42.6161 39.8354Z" fill="white"/>
<path d="M44.177 41.5766H40.995C40.9327 41.5723 40.8741 41.5456 40.83 41.5015C40.7858 41.4573 40.7592 41.3987 40.7549 41.3364V23.326L42.3761 19.9641C42.436 19.9039 42.4958 19.844 42.5563 19.844C42.6162 19.844 42.736 19.9039 42.736 19.9641L44.3573 23.326V41.3364C44.4171 41.4565 44.2974 41.5766 44.177 41.5766ZM41.2352 41.0963H43.9967V23.506L42.6162 20.6244L41.2352 23.506V41.0963Z" fill="white"/>
<path d="M44.177 42.8971H40.995C40.9327 42.8928 40.8741 42.8661 40.83 42.822C40.7858 42.7778 40.7592 42.7192 40.7549 42.6569V41.3363C40.7592 41.2741 40.7858 41.2154 40.83 41.1713C40.8741 41.1271 40.9327 41.1005 40.995 41.0962H44.177C44.2393 41.1004 44.2979 41.127 44.3421 41.1712C44.3863 41.2153 44.4129 41.274 44.4171 41.3363V42.6569C44.4129 42.7192 44.3863 42.7779 44.3421 42.8221C44.2979 42.8663 44.2393 42.8929 44.177 42.8971ZM41.2352 42.417H43.9967V41.5765H41.2352V42.417Z" fill="white"/>
<path d="M43.8171 46.079H41.5958C41.39 46.0754 41.1936 45.992 41.048 45.8465C40.9025 45.7009 40.8191 45.5045 40.8154 45.2987V42.657C40.8196 42.5946 40.8462 42.5359 40.8904 42.4918C40.9346 42.4476 40.9932 42.4209 41.0556 42.4167H44.237C44.2993 42.4209 44.358 42.4476 44.4021 42.4918C44.4463 42.5359 44.4729 42.5946 44.4771 42.657V45.5388C44.4502 45.693 44.3686 45.8324 44.2475 45.9316C44.1263 46.0308 43.9736 46.0831 43.8171 46.079ZM41.2353 42.8971V45.2987C41.2417 45.3921 41.2818 45.4801 41.348 45.5463C41.4143 45.6124 41.5024 45.6524 41.5958 45.6586H43.8171C43.8482 45.6565 43.8774 45.6432 43.8995 45.6212C43.9215 45.5992 43.9348 45.5699 43.9369 45.5388V42.8971H41.2353Z" fill="white"/>
<path d="M44.177 25.4872H40.995C40.9327 25.4829 40.8741 25.4562 40.83 25.4121C40.7858 25.3679 40.7592 25.3093 40.7549 25.247V23.326L42.3761 19.9641C42.436 19.9039 42.4958 19.844 42.5563 19.844C42.6162 19.844 42.736 19.9039 42.736 19.9641L44.3573 23.326V25.247C44.4171 25.4273 44.2974 25.4872 44.177 25.4872ZM41.2352 25.067H43.9967V23.506L42.6162 20.6244L41.2352 23.506V25.067Z" fill="white"/>
<path d="M35.5924 33.4716C35.3312 33.4716 35.0758 33.3942 34.8585 33.249C34.6413 33.1039 34.472 32.8977 34.372 32.6563C34.2721 32.415 34.2459 32.1494 34.2969 31.8932C34.3478 31.637 34.4736 31.4016 34.6583 31.2169C34.843 31.0322 35.0784 30.9064 35.3346 30.8554C35.5908 30.8045 35.8564 30.8307 36.0977 30.9306C36.3391 31.0306 36.5453 31.1999 36.6904 31.4171C36.8356 31.6344 36.913 31.8897 36.913 32.151C36.9166 32.3254 36.8848 32.4987 36.8198 32.6606C36.7547 32.8224 36.6575 32.9694 36.5342 33.0928C36.4108 33.2161 36.2638 33.3132 36.102 33.3783C35.9401 33.4434 35.7668 33.4752 35.5924 33.4716ZM35.5924 31.2505C35.4143 31.2505 35.2402 31.3033 35.0921 31.4022C34.9439 31.5011 34.8285 31.6417 34.7603 31.8062C34.6921 31.9708 34.6742 32.1518 34.709 32.3265C34.7437 32.5012 34.8294 32.6616 34.9553 32.7876C35.0812 32.9136 35.2417 32.9993 35.4164 33.0341C35.5911 33.0689 35.7721 33.051 35.9367 32.9829C36.1012 32.9148 36.2419 32.7993 36.3408 32.6513C36.4398 32.5032 36.4926 32.3291 36.4926 32.151C36.4948 32.0321 36.4731 31.914 36.4287 31.8038C36.3842 31.6935 36.318 31.5934 36.234 31.5093C36.1499 31.4253 36.0498 31.359 35.9395 31.3145C35.8293 31.2701 35.7112 31.2483 35.5924 31.2505Z" fill="white"/>
<path d="M35.5917 31.4907C35.5294 31.4865 35.4708 31.4599 35.4266 31.4157C35.3825 31.3716 35.3558 31.3129 35.3516 31.2506V29.8696C35.3516 29.8059 35.3768 29.7448 35.4219 29.6997C35.4669 29.6547 35.528 29.6294 35.5917 29.6294C35.6554 29.6294 35.7165 29.6547 35.7616 29.6997C35.8066 29.7448 35.8319 29.8059 35.8319 29.8696V31.2506C35.8276 31.3129 35.8009 31.3715 35.7567 31.4156C35.7126 31.4597 35.654 31.4864 35.5917 31.4907Z" fill="white"/>
<path d="M36.3722 31.9108C36.3123 31.9108 36.1919 31.8506 36.1919 31.7907C36.1696 31.7407 36.1633 31.6849 36.1741 31.6311C36.1848 31.5774 36.212 31.5283 36.2519 31.4907L37.4527 30.7702C37.5004 30.7387 37.5587 30.7273 37.6149 30.7387C37.671 30.75 37.7203 30.7831 37.7521 30.8307C37.7838 30.8784 37.7954 30.9366 37.7843 30.9928C37.7732 31.049 37.7404 31.0985 37.6929 31.1304L36.4921 31.8506C36.4322 31.9108 36.4322 31.9108 36.3722 31.9108Z" fill="white"/>
<path d="M37.5728 33.4717C37.5123 33.4717 37.5123 33.4717 37.4524 33.4118L36.2516 32.6913C36.1318 32.6314 36.1318 32.5113 36.1916 32.3912C36.2515 32.2711 36.372 32.2712 36.4918 32.3311L37.6926 33.0515C37.8129 33.1117 37.8129 33.2315 37.7524 33.3516C37.7524 33.4118 37.6327 33.4717 37.5728 33.4717Z" fill="white"/>
<path d="M35.5917 34.6126C35.5294 34.6084 35.4707 34.5817 35.4265 34.5376C35.3824 34.4934 35.3558 34.4347 35.3516 34.3724V32.9916C35.3516 32.9279 35.3768 32.8668 35.4219 32.8218C35.4669 32.7768 35.528 32.7515 35.5917 32.7515C35.6554 32.7515 35.7165 32.7768 35.7616 32.8218C35.8066 32.8668 35.8319 32.9279 35.8319 32.9916V34.3724C35.8276 34.4347 35.8009 34.4933 35.7568 34.5375C35.7126 34.5816 35.654 34.6083 35.5917 34.6126Z" fill="white"/>
<path d="M33.6711 33.4716C33.6112 33.4716 33.4907 33.4117 33.4907 33.3515C33.4684 33.3015 33.4622 33.2457 33.4729 33.192C33.4836 33.1382 33.5108 33.0891 33.5507 33.0515L34.7515 32.331C34.7992 32.2992 34.8577 32.2876 34.914 32.2989C34.9702 32.3101 35.0198 32.3433 35.0516 32.3911C35.0835 32.4388 35.095 32.4973 35.0838 32.5536C35.0725 32.6099 35.0393 32.6594 34.9916 32.6912L33.7908 33.4117C33.7597 33.4459 33.7171 33.4673 33.6711 33.4716Z" fill="white"/>
<path d="M34.8716 31.9109C34.8111 31.9109 34.8111 31.9109 34.7512 31.8507L33.5504 31.1305C33.4307 31.0703 33.4306 30.9502 33.4905 30.8301C33.5503 30.71 33.6708 30.7101 33.7905 30.7703L34.9913 31.4907C35.1117 31.5506 35.1117 31.6707 35.0512 31.7908C34.9913 31.8507 34.9315 31.9109 34.8716 31.9109Z" fill="white"/>
<path d="M35.5924 22.8456C35.3312 22.8456 35.0758 22.7682 34.8586 22.6231C34.6414 22.478 34.4721 22.2717 34.3721 22.0304C34.2721 21.7891 34.2459 21.5235 34.2968 21.2673C34.3478 21.0111 34.4735 20.7758 34.6582 20.591C34.8429 20.4063 35.0782 20.2805 35.3344 20.2295C35.5906 20.1785 35.8562 20.2046 36.0975 20.3046C36.3389 20.4045 36.5452 20.5738 36.6903 20.791C36.8355 21.0081 36.913 21.2635 36.913 21.5247C36.9166 21.6991 36.8849 21.8725 36.8198 22.0343C36.7547 22.1962 36.6576 22.3432 36.5342 22.4666C36.4109 22.59 36.2639 22.6871 36.102 22.7523C35.9402 22.8174 35.7668 22.8491 35.5924 22.8456ZM35.5924 20.6243C35.4143 20.6242 35.2401 20.6769 35.0919 20.7759C34.9438 20.8748 34.8283 21.0154 34.7601 21.18C34.6918 21.3445 34.674 21.5256 34.7087 21.7004C34.7434 21.8751 34.8291 22.0356 34.9551 22.1616C35.081 22.2876 35.2415 22.3734 35.4162 22.4081C35.591 22.4429 35.7721 22.4251 35.9366 22.3569C36.1012 22.2887 36.2419 22.1733 36.3409 22.0251C36.4398 21.877 36.4926 21.7028 36.4926 21.5247C36.4999 21.4046 36.4816 21.2843 36.4389 21.1717C36.3963 21.0592 36.3302 20.957 36.2451 20.8719C36.16 20.7868 36.0579 20.7207 35.9453 20.678C35.8328 20.6353 35.7125 20.617 35.5924 20.6243Z" fill="white"/>
<path d="M35.5917 20.8645C35.5294 20.8604 35.4707 20.8337 35.4265 20.7895C35.3824 20.7454 35.3557 20.6867 35.3516 20.6244V19.2436C35.3516 19.1799 35.3768 19.1188 35.4219 19.0738C35.4669 19.0287 35.528 19.0034 35.5917 19.0034C35.6554 19.0034 35.7165 19.0287 35.7616 19.0738C35.8066 19.1188 35.8319 19.1799 35.8319 19.2436V20.6244C35.8276 20.6867 35.8009 20.7453 35.7568 20.7894C35.7126 20.8336 35.654 20.8603 35.5917 20.8645Z" fill="white"/>
<path d="M36.3722 21.2846C36.3123 21.2846 36.1919 21.2247 36.1919 21.1645C36.1696 21.1145 36.1633 21.0587 36.1741 21.0049C36.1848 20.9512 36.212 20.9021 36.2519 20.8645L37.4527 20.144C37.5004 20.1125 37.5587 20.1011 37.6149 20.1124C37.671 20.1238 37.7203 20.1569 37.7521 20.2045C37.7838 20.2522 37.7954 20.3104 37.7843 20.3666C37.7732 20.4228 37.7404 20.4722 37.6929 20.5042L36.4921 21.2247C36.4322 21.2846 36.4322 21.2846 36.3722 21.2846Z" fill="white"/>
<path d="M37.5728 22.8457C37.5123 22.8457 37.5123 22.8457 37.4524 22.7855L36.2516 22.0653C36.1318 22.0051 36.1318 21.8851 36.1916 21.765C36.2515 21.6449 36.372 21.6449 36.4918 21.7051L37.6926 22.4256C37.8129 22.4855 37.8129 22.6055 37.7524 22.7256C37.7524 22.8457 37.6327 22.8457 37.5728 22.8457Z" fill="white"/>
<path d="M35.5917 23.9861C35.5294 23.9819 35.4707 23.9553 35.4265 23.9111C35.3824 23.867 35.3558 23.8083 35.3516 23.746V22.3652C35.3516 22.3015 35.3768 22.2404 35.4219 22.1954C35.4669 22.1503 35.528 22.125 35.5917 22.125C35.6554 22.125 35.7165 22.1503 35.7616 22.1954C35.8066 22.2404 35.8319 22.3015 35.8319 22.3652V23.746C35.8276 23.8083 35.8009 23.8669 35.7568 23.911C35.7126 23.9552 35.654 23.9818 35.5917 23.9861Z" fill="white"/>
<path d="M33.6711 22.8457C33.6112 22.8457 33.4908 22.7855 33.4908 22.7256C33.4684 22.6755 33.4622 22.6197 33.4729 22.566C33.4836 22.5122 33.5108 22.4631 33.5507 22.4255L34.7515 21.705C34.8015 21.6825 34.8573 21.6763 34.9111 21.687C34.9649 21.6977 35.014 21.725 35.0515 21.7649C35.112 21.8251 35.0515 22.0051 34.9916 22.0653L33.7908 22.7855C33.7598 22.8198 33.7171 22.8413 33.6711 22.8457Z" fill="white"/>
<path d="M34.8716 21.2847C34.8111 21.2847 34.8111 21.2847 34.7512 21.2248L33.5504 20.5043C33.4307 20.4441 33.4306 20.3243 33.4905 20.2042C33.5503 20.0841 33.6708 20.0842 33.7905 20.1441L34.9913 20.8645C35.1117 20.9244 35.1117 21.0445 35.0512 21.1646C34.9913 21.2248 34.9315 21.2847 34.8716 21.2847Z" fill="white"/>
<path d="M35.1116 47.1598H16.0205C15.9568 47.1598 15.8957 47.1345 15.8506 47.0894C15.8056 47.0444 15.7803 46.9833 15.7803 46.9196C15.7803 46.8559 15.8056 46.7948 15.8506 46.7498C15.8957 46.7047 15.9568 46.6794 16.0205 46.6794H35.1116C35.1738 46.6837 35.2325 46.7104 35.2766 46.7546C35.3208 46.7987 35.3474 46.8574 35.3517 46.9196C35.3548 46.952 35.3507 46.9845 35.3398 47.0151C35.3288 47.0456 35.3112 47.0734 35.2883 47.0963C35.2653 47.1193 35.2375 47.1369 35.207 47.1478C35.1764 47.1588 35.1439 47.1629 35.1116 47.1598Z" fill="white"/>
<path d="M40.4545 48.0001H27.247C27.1833 48.0001 27.1222 47.9748 27.0772 47.9297C27.0321 47.8847 27.0068 47.8236 27.0068 47.7599C27.0068 47.6962 27.0321 47.6351 27.0772 47.5901C27.1222 47.5451 27.1833 47.5198 27.247 47.5198H40.4545C40.5168 47.524 40.5755 47.5506 40.6197 47.5948C40.6638 47.6389 40.6905 47.6976 40.6947 47.7599C40.6348 47.88 40.5749 48.0001 40.4545 48.0001Z" fill="white"/>
<path d="M43.4565 48.0001H41.7753C41.7116 48.0001 41.6505 47.9748 41.6055 47.9297C41.5604 47.8847 41.5352 47.8236 41.5352 47.7599C41.5352 47.6962 41.5604 47.6351 41.6055 47.5901C41.6505 47.5451 41.7116 47.5198 41.7753 47.5198H43.4565C43.5201 47.5198 43.5812 47.5451 43.6263 47.5901C43.6713 47.6351 43.6966 47.6962 43.6966 47.7599C43.6966 47.8236 43.6713 47.8847 43.6263 47.9297C43.5812 47.9748 43.5201 48.0001 43.4565 48.0001Z" fill="white"/>
<path d="M21.5436 47.94H15.2402C15.1765 47.94 15.1154 47.9147 15.0703 47.8697C15.0253 47.8246 15 47.7636 15 47.6999C15 47.6362 15.0253 47.5751 15.0703 47.5301C15.1154 47.485 15.1765 47.4597 15.2402 47.4597H21.4837C21.546 47.464 21.6046 47.4907 21.6488 47.5348C21.6929 47.579 21.7196 47.6376 21.7238 47.6999C21.7837 47.82 21.664 47.94 21.5436 47.94Z" fill="white"/>
</g>
<defs>
<clipPath id="clip0_352_6875">
<rect width="29.4766" height="35" fill="white" transform="translate(15 13)"/>
</clipPath>
</defs>
</svg>
