<svg width="22" height="26" viewBox="0 0 22 26" fill="none" xmlns="http://www.w3.org/2000/svg">
<path d="M11.9255 0.462112C11.7275 1.96016 11.306 2.54414 9.92472 3.25C9.02081 3.71211 8.58917 3.99141 8.1423 4.41289C7.54308 4.98164 7.18761 5.55547 6.96925 6.31211C6.71535 7.18555 6.68995 8.0336 6.86769 9.80078C6.94894 10.659 6.96417 11.8473 6.89308 12.218C6.61886 13.65 5.61339 14.5031 4.32355 14.4066C3.90206 14.3762 3.65324 14.2797 3.30285 14.0156C2.78995 13.6297 2.22628 12.6801 1.93683 11.7051C1.86066 11.4512 1.78449 11.1922 1.76417 11.1211C1.72355 10.9992 1.71847 10.9992 1.5712 11.2328C1.05831 12.0352 0.743471 14.0156 0.809486 15.9961C0.860267 17.4941 0.982142 18.1645 1.39855 19.2156C2.09425 20.9676 2.85597 22.2066 3.9173 23.3035C5.12589 24.5527 6.54269 25.3855 8.26417 25.8426L8.80753 25.9898L8.39113 25.5785C7.48214 24.6695 7.03019 23.5777 7.02511 22.2676C7.02511 21.6938 7.1216 21.0641 7.23839 20.8813C7.26886 20.8305 7.36027 20.8914 7.57863 21.1148C8.0712 21.6074 8.5587 21.7953 9.0462 21.6887C9.64035 21.5566 9.7216 21.3078 9.74699 19.6016C9.76222 18.4945 9.77745 18.3168 9.87902 17.9816C10.1278 17.1438 10.6306 16.2906 11.24 15.666L11.5853 15.3105L11.6157 15.8945C11.6767 16.9762 11.9204 17.4688 13.0122 18.7129C13.6724 19.4645 14.0228 19.9672 14.3275 20.5918C14.82 21.5973 14.9876 22.3844 14.947 23.4863C14.9114 24.4207 14.8657 24.5832 14.3122 25.7156C14.2513 25.8375 15.4446 25.2789 16.0794 24.8879C17.3489 24.0957 18.6083 22.8516 19.5478 21.4551C20.0353 20.7289 20.3146 20.15 20.5888 19.3172C20.9646 18.1898 21.1423 17.1488 21.1931 15.8691C21.2845 13.3504 20.6446 10.593 19.3751 8.06406C19.1821 7.6832 19.0095 7.35821 18.9841 7.34297C18.9638 7.33282 18.8318 7.53594 18.6997 7.80508C17.8263 9.56719 16.5974 10.5625 15.3025 10.5625C14.7388 10.5625 14.0025 10.2121 13.4896 9.69414C12.4485 8.65313 12.0982 6.77422 12.4943 4.29102C12.7532 2.63555 12.7786 1.86367 12.5958 1.14766C12.5095 0.812502 12.286 0.355471 12.1083 0.132034L11.9864 -0.0101547L11.9255 0.462112Z" fill="#FF0000"/>
</svg>
