<svg width="35" height="35" viewBox="0 0 35 35" fill="none" xmlns="http://www.w3.org/2000/svg">
<circle cx="17.5" cy="17.5" r="17.5" fill="white"/>
<path d="M15.9503 18.432C15.9503 20.2987 15.5929 21.7333 14.8783 22.736C14.1743 23.728 13.1983 24.224 11.9503 24.224C10.7023 24.224 9.72092 23.728 9.00625 22.736C8.30225 21.7333 7.95025 20.2987 7.95025 18.432C7.95025 17.504 8.04092 16.6827 8.22225 15.968C8.41425 15.2533 8.68625 14.6507 9.03825 14.16C9.39025 13.6693 9.81158 13.296 10.3023 13.04C10.7929 12.784 11.3423 12.656 11.9503 12.656C13.1983 12.656 14.1743 13.1573 14.8783 14.16C15.5929 15.152 15.9503 16.576 15.9503 18.432ZM13.5183 18.432C13.5183 17.8773 13.4916 17.376 13.4383 16.928C13.3849 16.4693 13.2996 16.0747 13.1823 15.744C13.0649 15.4133 12.9049 15.1573 12.7023 14.976C12.4996 14.7947 12.2489 14.704 11.9503 14.704C11.6516 14.704 11.4009 14.7947 11.1983 14.976C11.0063 15.1573 10.8463 15.4133 10.7183 15.744C10.6009 16.0747 10.5156 16.4693 10.4623 16.928C10.4089 17.376 10.3823 17.8773 10.3823 18.432C10.3823 18.9867 10.4089 19.4933 10.4623 19.952C10.5156 20.4107 10.6009 20.8053 10.7183 21.136C10.8463 21.4667 11.0063 21.7227 11.1983 21.904C11.4009 22.0853 11.6516 22.176 11.9503 22.176C12.2489 22.176 12.4996 22.0853 12.7023 21.904C12.9049 21.7227 13.0649 21.4667 13.1823 21.136C13.2996 20.8053 13.3849 20.4107 13.4383 19.952C13.4916 19.4933 13.5183 18.9867 13.5183 18.432ZM17.62 15.216C17.9293 15.088 18.2493 14.944 18.58 14.784C18.9213 14.6133 19.252 14.432 19.572 14.24C19.892 14.0373 20.196 13.8293 20.484 13.616C20.7827 13.392 21.0493 13.1573 21.284 12.912H22.948V24H20.564V16.016C20.244 16.2293 19.8867 16.4267 19.492 16.608C19.0973 16.7787 18.7133 16.928 18.34 17.056L17.62 15.216Z" fill="#009345"/>
</svg>
