<svg width="18" height="18" viewBox="0 0 18 18" fill="none" xmlns="http://www.w3.org/2000/svg">
<path d="M3.65625 2.8125C2.98492 2.8125 2.34109 3.07918 1.86639 3.55389C1.39168 4.02859 1.125 4.67242 1.125 5.34375V12.6562C1.125 13.3276 1.39168 13.9714 1.86639 14.4461C2.34109 14.9208 2.98492 15.1875 3.65625 15.1875H14.3438C15.0151 15.1875 15.6589 14.9208 16.1336 14.4461C16.6083 13.9714 16.875 13.3276 16.875 12.6562V5.34375C16.875 4.67242 16.6083 4.02859 16.1336 3.55389C15.6589 3.07918 15.0151 2.8125 14.3438 2.8125H3.65625ZM15.75 5.85169L9 9.486L2.25 5.85169V5.34375C2.25 4.97079 2.39816 4.6131 2.66188 4.34938C2.9256 4.08566 3.28329 3.9375 3.65625 3.9375H14.3438C14.7167 3.9375 15.0744 4.08566 15.3381 4.34938C15.6018 4.6131 15.75 4.97079 15.75 5.34375V5.85169ZM2.25 7.12912L8.73338 10.6206C8.81532 10.6647 8.90693 10.6878 9 10.6878C9.09307 10.6878 9.18468 10.6647 9.26663 10.6206L15.75 7.12912V12.6562C15.75 13.0292 15.6018 13.3869 15.3381 13.6506C15.0744 13.9143 14.7167 14.0625 14.3438 14.0625H3.65625C3.28329 14.0625 2.9256 13.9143 2.66188 13.6506C2.39816 13.3869 2.25 13.0292 2.25 12.6562V7.12912Z" fill="white"/>
</svg>
