<svg width="96" height="96" viewBox="0 0 96 96" fill="none" xmlns="http://www.w3.org/2000/svg">
<path d="M48 96C74.5097 96 96 74.5097 96 48C96 21.4903 74.5097 0 48 0C21.4903 0 0 21.4903 0 48C0 74.5097 21.4903 96 48 96Z" fill="#009345"/>
<path d="M45.5977 20.0391C44.8125 20.2852 44.1445 20.6836 43.6406 21.1992C43.1367 21.7266 42.4922 22.9219 42.4922 23.3555V23.625L32.5664 23.6484L22.6289 23.6836L22.043 23.9766C21.293 24.3398 20.5898 25.043 20.2266 25.793L19.9336 26.3789V44.25V62.1211L20.25 62.7188C20.7188 63.6094 21.0703 63.9727 21.8906 64.418L22.6289 64.8164L32.5078 64.8516L42.375 64.8867V65.8008V66.7266L40.8867 66.7734C39.5039 66.8086 39.3281 66.8438 38.6016 67.1836C37.5117 67.6875 36.832 68.3555 36.3047 69.4219C35.8945 70.2656 35.8711 70.3711 35.8711 71.4375C35.8711 72.5039 35.8945 72.6094 36.3047 73.4531C36.832 74.5195 37.5117 75.1758 38.6016 75.6914L39.3867 76.0664H46.125H52.8633L53.6484 75.6914C54.7383 75.1758 55.418 74.5195 55.9453 73.4531C56.3555 72.6094 56.3789 72.5039 56.3789 71.4375C56.3789 70.3711 56.3555 70.2656 55.9453 69.4219C55.418 68.3555 54.7383 67.6875 53.6484 67.1836C52.9219 66.8438 52.7461 66.8086 51.375 66.7734L49.875 66.7266V65.8008V64.8867L59.7539 64.8516L69.6211 64.8164L70.3594 64.418C71.1797 63.9727 71.5312 63.6094 72 62.7188L72.3164 62.1211L72.3516 52.125C72.375 43.5469 72.4102 42.1406 72.5508 42.1406C72.6445 42.1406 73.0078 42.0352 73.3711 41.8945C74.2734 41.5547 75.1992 40.6758 75.6797 39.7031L76.0664 38.918L76.1016 31.2773C76.1367 23.7539 76.125 23.625 75.8789 22.8984C75.5625 21.9492 75 21.1875 74.2266 20.6602C72.9961 19.8281 73.793 19.875 59.2031 19.8867C48.9375 19.8867 45.9609 19.9219 45.5977 20.0391ZM73.0547 22.1367C73.3242 22.3125 73.6875 22.6758 73.8633 22.9453L74.1914 23.4375L74.2266 30.7617C74.25 36.0469 74.2266 38.2266 74.1328 38.5664C73.9219 39.2578 73.4766 39.7852 72.7969 40.1016L72.1992 40.3828H64.0898C59.6367 40.3828 55.8984 40.418 55.793 40.4531C55.6875 40.5 55.4648 40.8047 55.3008 41.1328C54.2695 43.1953 52.3477 44.8828 50.3086 45.5391C49.6172 45.75 49.582 45.5859 50.0625 44.5547C50.6016 43.3828 50.9766 41.9062 50.8945 41.2734C50.7773 40.4414 50.6133 40.3828 48.3047 40.3828C46.4414 40.3828 46.2539 40.3594 45.7031 40.1016C45.0703 39.8086 44.6016 39.293 44.3789 38.6367C44.2031 38.0977 44.1914 24.1172 44.3789 23.4609C44.5312 22.9102 45.375 22.043 45.9141 21.8789C46.1484 21.8086 51.2695 21.7734 59.4375 21.7852L72.5625 21.8086L73.0547 22.1367ZM42.3984 32.2031L42.4336 38.918L42.7969 39.6797C43.2539 40.6523 43.9922 41.3789 44.9531 41.8359C45.6562 42.1641 45.832 42.1992 47.2852 42.2344L48.8438 42.2812L48.7734 42.6328C48.7383 42.8203 48.5273 43.3828 48.3047 43.8984C47.7539 45.1289 47.6953 45.5508 47.9414 46.1836C48.3164 47.1914 49.2891 47.6836 50.4141 47.4375C51.3633 47.2383 53.0977 46.3711 54.0703 45.5977C54.9609 44.9062 56.1445 43.5234 56.5664 42.7148L56.7891 42.2578H63.6445H70.5L70.4766 52.0312C70.4414 61.6992 70.4414 61.8164 70.1953 62.1328C70.0664 62.3086 69.8086 62.5664 69.6328 62.6953C69.3164 62.9414 69.2227 62.9414 57.2461 62.9766L45.1875 63V61.6641C45.1875 59.25 44.707 57.4336 43.5703 55.6289C42.9141 54.5625 41.4961 53.1211 40.5352 52.5234L39.832 52.0898L40.8516 51.0703C41.6602 50.25 41.9648 49.8516 42.3516 49.0547C43.043 47.6602 43.2422 46.793 43.2422 45.2461C43.2422 44.2617 43.1836 43.7344 42.9844 43.0312C42.1523 40.1016 39.8906 37.793 37.1016 37.0312C35.918 36.7031 33.668 36.7266 32.5312 37.0898C31.0195 37.5586 30.1172 38.0977 29.0156 39.1992C27.3047 40.9102 26.5078 42.8438 26.5078 45.2461C26.5078 46.793 26.707 47.6602 27.3984 49.0547C27.7852 49.8516 28.0898 50.25 28.8984 51.0703L29.918 52.0898L29.2266 52.5234C28.1836 53.1562 27.1055 54.2344 26.332 55.3828C25.1016 57.2344 24.5625 59.1328 24.5625 61.6758V63.0234L23.7539 62.9766C23.0977 62.9414 22.875 62.8711 22.5117 62.6016C21.6914 61.9805 21.75 63.2812 21.75 44.2617C21.75 32.3438 21.7852 26.9414 21.8789 26.707C22.043 26.2734 22.4297 25.8516 22.8633 25.6641C23.1445 25.5352 25.0781 25.5117 32.7891 25.5H42.3633L42.3984 32.2031ZM36.2227 38.8008C39.3164 39.4453 41.3555 41.9883 41.3555 45.1875C41.3555 47.7305 40.0547 49.9336 37.9219 50.9766C35.4609 52.1836 32.8828 51.9375 30.7969 50.2969C27.0586 47.3555 27.7031 41.4023 31.9805 39.3398C33.4453 38.625 34.6641 38.4727 36.2227 38.8008ZM33.4102 53.4609C34.4648 53.6836 35.9062 53.6367 37.0078 53.332C37.6289 53.168 37.6992 53.168 38.2031 53.3789C40.1133 54.1992 41.8242 55.9336 42.6328 57.8555C43.1016 58.9688 43.3125 60.1875 43.3125 61.7227V63H34.875H26.4375V61.7109C26.4375 59.0625 27.1641 57.0586 28.7461 55.3711C29.7305 54.3164 31.7344 53.0742 32.2383 53.2148C32.3672 53.25 32.8945 53.3555 33.4102 53.4609ZM48 66.9258C48 68.7656 47.9766 69.0352 47.7656 69.457C47.1445 70.6641 45.4688 70.8047 44.625 69.7031C44.3086 69.293 44.3086 69.2812 44.2734 67.0781L44.2383 64.875H46.1133H48V66.9258ZM42.4219 69.1289C42.6094 70.3359 43.5352 71.5312 44.6953 72.0586C45.457 72.3984 46.793 72.3984 47.5547 72.0586C48.7148 71.5312 49.6406 70.3359 49.8281 69.1289L49.8984 68.625H51.0938C52.0312 68.625 52.3828 68.6836 52.8047 68.8711C53.918 69.375 54.4922 70.2422 54.4922 71.4375C54.4922 72.3281 54.2109 72.9609 53.5898 73.5117C52.7227 74.2734 52.8164 74.2617 45.9492 74.2266C39.8438 74.1914 39.7266 74.1914 39.2695 73.9336C38.2617 73.3945 37.7578 72.5625 37.7578 71.4375C37.7578 70.2422 38.332 69.375 39.4453 68.8711C39.8672 68.6836 40.2188 68.625 41.1562 68.625H42.3516L42.4219 69.1289Z" fill="white"/>
<path d="M50.3668 26.5195C50.1207 26.6133 49.8512 27.2578 49.9215 27.5625C49.9684 27.7148 50.109 27.9492 50.2496 28.0781C50.4957 28.3125 50.6246 28.3125 59.2379 28.3125C65.9293 28.3008 68.027 28.2773 68.1676 28.1602C68.6832 27.7617 68.7184 27.1172 68.2496 26.6719C68.0035 26.4375 67.8746 26.4375 59.2614 26.4492C54.4567 26.4492 50.4489 26.4844 50.3668 26.5195Z" fill="white"/>
<path d="M54.1168 30.2695C53.8707 30.3633 53.6012 31.0078 53.6715 31.3125C53.7184 31.4648 53.859 31.6992 53.9996 31.8281C54.2457 32.0508 54.3981 32.0625 59.2496 32.0625C64.1012 32.0625 64.2535 32.0508 64.4996 31.8281C64.6403 31.6992 64.7809 31.4648 64.8278 31.3125C64.9098 30.9844 64.6168 30.3633 64.3473 30.2578C64.1129 30.1758 54.3395 30.1758 54.1168 30.2695Z" fill="white"/>
<path d="M51.3043 34.0195C51.0582 34.1133 50.7887 34.7578 50.859 35.0625C50.9059 35.2148 51.0465 35.4492 51.1871 35.5781C51.4332 35.8125 51.5739 35.8125 59.2496 35.8125C66.9254 35.8125 67.066 35.8125 67.3121 35.5781C67.7809 35.1328 67.7457 34.4883 67.2301 34.0898C67.0895 33.9844 65.2028 33.9492 59.2496 33.9492C54.9606 33.9492 51.3864 33.9844 51.3043 34.0195Z" fill="white"/>
<path d="M24.1522 27.5156C23.5545 27.832 23.4491 28.4999 23.9178 28.957C24.5741 29.6249 25.6639 28.957 25.4295 28.0312C25.2889 27.4687 24.6795 27.2226 24.1522 27.5156Z" fill="white"/>
<path d="M27.3981 27.457C27.152 27.5508 26.8824 28.1953 26.9528 28.5C27.0582 28.8867 27.4801 29.25 27.8434 29.25C28.0074 29.25 28.2653 29.1445 28.4059 29.0156C29.2028 28.2773 28.4059 27.0469 27.3981 27.457Z" fill="white"/>
<path d="M30.4805 27.668C30.293 27.8438 30.1875 28.0898 30.1875 28.3125C30.1875 28.7344 30.6328 29.25 30.9961 29.25C31.582 29.25 32.0625 28.7695 32.0625 28.1836C32.0625 27.8203 31.5469 27.375 31.125 27.375C30.9023 27.375 30.6562 27.4805 30.4805 27.668Z" fill="white"/>
</svg>
