<svg width="17" height="24" viewBox="0 0 17 24" fill="none" xmlns="http://www.w3.org/2000/svg">
<path d="M8.18332 0C4.55519 0 2.20523 1.53295 0.360279 4.26684C0.0255977 4.76278 0.128779 5.44275 0.595643 5.80781L2.55646 7.34105C3.02796 7.70972 3.69882 7.62352 4.06796 7.14661C5.20655 5.67562 6.05114 4.82869 7.82964 4.82869C9.22801 4.82869 10.9576 5.75677 10.9576 7.15514C10.9576 8.21227 10.1114 8.75517 8.73069 9.55345C7.12055 10.4844 4.98982 11.643 4.98982 14.5412V15C4.98982 15.6213 5.47823 16.125 6.08073 16.125H9.37487C9.97737 16.125 10.4658 15.6213 10.4658 15V14.7294C10.4658 12.7203 16.1598 12.6367 16.1598 7.2C16.1598 3.10575 12.0416 0 8.18332 0ZM7.72782 17.5059C5.99164 17.5059 4.57914 18.9625 4.57914 20.753C4.57914 22.5434 5.99164 24 7.72782 24C9.46401 24 10.8765 22.5434 10.8765 20.7529C10.8765 18.9625 9.46401 17.5059 7.72782 17.5059Z" fill="#009345"/>
</svg>
