<svg width="35" height="35" viewBox="0 0 35 35" fill="none" xmlns="http://www.w3.org/2000/svg">
<circle cx="17.5" cy="17.5" r="17.5" fill="white"/>
<path d="M15.9503 18.432C15.9503 20.2987 15.5929 21.7333 14.8783 22.736C14.1743 23.728 13.1983 24.224 11.9503 24.224C10.7023 24.224 9.72092 23.728 9.00625 22.736C8.30225 21.7333 7.95025 20.2987 7.95025 18.432C7.95025 17.504 8.04092 16.6827 8.22225 15.968C8.41425 15.2533 8.68625 14.6507 9.03825 14.16C9.39025 13.6693 9.81158 13.296 10.3023 13.04C10.7929 12.784 11.3423 12.656 11.9503 12.656C13.1983 12.656 14.1743 13.1573 14.8783 14.16C15.5929 15.152 15.9503 16.576 15.9503 18.432ZM13.5183 18.432C13.5183 17.8773 13.4916 17.376 13.4383 16.928C13.3849 16.4693 13.2996 16.0747 13.1823 15.744C13.0649 15.4133 12.9049 15.1573 12.7023 14.976C12.4996 14.7947 12.2489 14.704 11.9503 14.704C11.6516 14.704 11.4009 14.7947 11.1983 14.976C11.0063 15.1573 10.8463 15.4133 10.7183 15.744C10.6009 16.0747 10.5156 16.4693 10.4623 16.928C10.4089 17.376 10.3823 17.8773 10.3823 18.432C10.3823 18.9867 10.4089 19.4933 10.4623 19.952C10.5156 20.4107 10.6009 20.8053 10.7183 21.136C10.8463 21.4667 11.0063 21.7227 11.1983 21.904C11.4009 22.0853 11.6516 22.176 11.9503 22.176C12.2489 22.176 12.4996 22.0853 12.7023 21.904C12.9049 21.7227 13.0649 21.4667 13.1823 21.136C13.2996 20.8053 13.3849 20.4107 13.4383 19.952C13.4916 19.4933 13.5183 18.9867 13.5183 18.432ZM24.436 15.824C24.436 16.2293 24.356 16.6187 24.196 16.992C24.036 17.3653 23.828 17.728 23.572 18.08C23.316 18.4213 23.028 18.752 22.708 19.072C22.388 19.392 22.0733 19.696 21.764 19.984C21.604 20.1333 21.428 20.304 21.236 20.496C21.0547 20.6773 20.8787 20.864 20.708 21.056C20.5373 21.248 20.3827 21.4293 20.244 21.6C20.116 21.76 20.036 21.8933 20.004 22H24.772V24H17.38C17.3587 23.8827 17.348 23.7333 17.348 23.552C17.348 23.3707 17.348 23.2427 17.348 23.168C17.348 22.656 17.428 22.1867 17.588 21.76C17.7587 21.3333 17.9773 20.9387 18.244 20.576C18.5107 20.2027 18.8093 19.856 19.14 19.536C19.4813 19.216 19.8173 18.896 20.148 18.576C20.404 18.3307 20.644 18.1013 20.868 17.888C21.092 17.664 21.2893 17.4507 21.46 17.248C21.6307 17.0347 21.764 16.8267 21.86 16.624C21.956 16.4107 22.004 16.1973 22.004 15.984C22.004 15.5147 21.8707 15.184 21.604 14.992C21.3373 14.8 21.0067 14.704 20.612 14.704C20.324 14.704 20.052 14.752 19.796 14.848C19.5507 14.9333 19.3213 15.04 19.108 15.168C18.9053 15.2853 18.7293 15.408 18.58 15.536C18.4307 15.6533 18.3187 15.7493 18.244 15.824L17.06 14.16C17.5293 13.7227 18.0733 13.3653 18.692 13.088C19.3213 12.8 19.9933 12.656 20.708 12.656C21.3587 12.656 21.9187 12.7307 22.388 12.88C22.8573 13.0293 23.2413 13.2427 23.54 13.52C23.8493 13.7867 24.0733 14.1173 24.212 14.512C24.3613 14.896 24.436 15.3333 24.436 15.824Z" fill="#009345"/>
</svg>
