<svg width="42" height="42" viewBox="0 0 42 42" fill="none" xmlns="http://www.w3.org/2000/svg">
<path d="M0 12.8C0 8.31958 0 6.07937 0.871948 4.36808C1.63893 2.86278 2.86278 1.63893 4.36808 0.871948C6.07937 0 8.31958 0 12.8 0H29.2C33.6804 0 35.9206 0 37.6319 0.871948C39.1372 1.63893 40.3611 2.86278 41.1281 4.36808C42 6.07937 42 8.31958 42 12.8V29.2C42 33.6804 42 35.9206 41.1281 37.6319C40.3611 39.1372 39.1372 40.3611 37.6319 41.1281C35.9206 42 33.6804 42 29.2 42H12.8C8.31958 42 6.07937 42 4.36808 41.1281C2.86278 40.3611 1.63893 39.1372 0.871948 37.6319C0 35.9206 0 33.6804 0 29.2V12.8Z" fill="#FBFBFB"/>
<path d="M21.9382 11.5922C21.8773 11.625 21.7741 11.7234 21.7179 11.8078C21.6101 11.9672 21.6101 11.9766 21.6101 13.5984V15.2344H19.782C17.757 15.2344 17.7054 15.2391 17.532 15.525C17.4429 15.6703 17.4382 15.7594 17.4382 17.1891V18.7031H15.6101C13.6226 18.7031 13.5663 18.7078 13.3695 18.9609C13.2663 19.0875 13.2663 19.1156 13.2663 20.8594V22.6313L13.046 22.8094C12.9195 22.9078 12.5351 23.2641 12.1882 23.6016C11.8413 23.9438 11.1382 24.5953 10.6273 25.0547C10.1163 25.5094 9.67571 25.9359 9.65227 26.0016C9.54914 26.2781 9.65696 26.6156 9.90071 26.7469C9.96164 26.7844 10.107 26.8078 10.2241 26.8125C10.4726 26.8125 10.3648 26.8969 11.832 25.575C12.3429 25.1156 12.9195 24.5719 13.1163 24.3656C13.7632 23.6906 14.5273 23.1984 15.3523 22.9313C16.0226 22.7109 16.3882 22.6641 17.3445 22.6688C18.3429 22.6688 19.0179 22.7672 20.0632 23.0484L20.696 23.2219L22.3648 23.2453L24.0335 23.2734L24.2632 23.4141C24.5398 23.5875 24.7507 23.9109 24.7882 24.2156C24.807 24.3938 24.7929 24.45 24.7273 24.5016C24.657 24.5484 24.1601 24.5625 22.1445 24.5625C19.6882 24.5625 19.6507 24.5625 19.5288 24.6609C19.2663 24.8672 19.2007 25.1766 19.3601 25.4391C19.5429 25.7438 19.4632 25.7344 22.3085 25.7344C24.7695 25.7344 24.9007 25.7297 25.1398 25.6406C25.4351 25.5281 25.7351 25.2469 25.8851 24.9422C25.9976 24.7078 26.0257 24.2625 25.9554 23.8547L25.9132 23.6438L26.6116 23.2125C26.996 22.9781 27.3616 22.725 27.432 22.6547C27.4976 22.5844 27.8116 22.1344 28.1257 21.6563C28.9038 20.4891 29.1757 20.2359 29.8788 20.0203C30.3288 19.8797 31.0976 19.8891 31.1538 20.0344C31.1773 20.0906 29.832 22.7109 29.5788 23.1094C29.5038 23.2266 29.3398 23.4188 29.2179 23.5359C28.9741 23.7703 25.3835 26.6391 25.0929 26.8313C24.6429 27.1313 24.8913 27.1125 20.4382 27.1406L16.3835 27.1641L16.1023 27.2672C15.9523 27.3281 15.7179 27.4453 15.5866 27.5344C15.3007 27.7266 13.407 29.4516 13.3273 29.5922C13.2476 29.7328 13.2523 30.0234 13.3366 30.1875C13.482 30.4688 13.9226 30.5578 14.1851 30.3609C14.2648 30.3047 14.7429 29.8781 15.2538 29.4141C15.7601 28.95 16.2757 28.5188 16.3976 28.4531L16.6179 28.3359L20.696 28.3125C24.6945 28.2891 24.7788 28.2844 25.032 28.1906C25.1773 28.1344 25.4023 28.0359 25.5335 27.9703C25.871 27.7969 29.8179 24.6469 30.1929 24.2484C30.5398 23.8781 30.6898 23.6297 31.6695 21.75L32.3679 20.4141V20.0391C32.3679 19.7156 32.3491 19.6359 32.2413 19.4438C31.9835 19.0125 31.6695 18.8391 30.9476 18.7453C30.2163 18.6469 29.3866 18.8297 28.7163 19.2281C28.2616 19.4953 27.7929 19.9828 27.3757 20.6203L27.0241 21.1547L27.0007 16.5422C26.982 12.9844 26.9632 11.9063 26.921 11.8266C26.8882 11.7703 26.8038 11.6813 26.7382 11.6297C26.6163 11.5313 26.5695 11.5313 24.3335 11.5313C22.6038 11.5313 22.0273 11.5453 21.9382 11.5922ZM25.782 17.5078V22.3125L25.5241 22.4766L25.2663 22.6406L24.9898 22.4531C24.5257 22.1391 24.2632 22.0641 23.4991 22.0406L22.8288 22.0219V17.3625V12.7031H24.3054H25.782V17.5078ZM21.6101 19.2422V22.0313H21.2773C21.0616 22.0313 20.771 21.9844 20.4241 21.8906C20.1335 21.8156 19.6132 21.7031 19.2663 21.6422L18.6335 21.5344L18.6195 18.9938L18.6101 16.4531H20.1101H21.6101V19.2422ZM17.4382 20.6719C17.4382 21.3703 17.4335 21.4219 17.3491 21.4219C17.3023 21.4219 16.9929 21.4453 16.6601 21.4688C15.9616 21.5297 15.3148 21.6563 14.8038 21.8438L14.4382 21.9797V20.9484V19.9219H15.9382H17.4382V20.6719Z" fill="#009345" stroke="#009345" stroke-width="0.7"/>
</svg>
