<svg width="42" height="42" viewBox="0 0 42 42" fill="none" xmlns="http://www.w3.org/2000/svg">
<path d="M0 12.8C0 8.31958 0 6.07937 0.871948 4.36808C1.63893 2.86278 2.86278 1.63893 4.36808 0.871948C6.07937 0 8.31958 0 12.8 0H29.2C33.6804 0 35.9206 0 37.6319 0.871948C39.1372 1.63893 40.3611 2.86278 41.1281 4.36808C42 6.07937 42 8.31958 42 12.8V29.2C42 33.6804 42 35.9206 41.1281 37.6319C40.3611 39.1372 39.1372 40.3611 37.6319 41.1281C35.9206 42 33.6804 42 29.2 42H12.8C8.31958 42 6.07937 42 4.36808 41.1281C2.86278 40.3611 1.63893 39.1372 0.871948 37.6319C0 35.9206 0 33.6804 0 29.2V12.8Z" fill="#FBFBFB"/>
<g clip-path="url(#clip0_226_18017)">
<path d="M14.9902 21.2V25.124C14.9902 26.073 15.4652 26.958 16.2542 27.483L17.8612 28.552C19.7622 29.816 22.2362 29.816 24.1362 28.552L25.7432 27.483C26.5332 26.958 27.0072 26.072 27.0072 25.124V21.2M18.7022 13.095L12.5282 16.525C11.2302 17.246 11.2302 19.112 12.5282 19.833L18.7022 23.263C20.1302 24.056 21.8672 24.056 23.2962 23.263L29.4702 19.833C30.7682 19.112 30.7682 17.246 29.4702 16.525L23.2962 13.095C21.8672 12.302 20.1312 12.302 18.7022 13.095Z" stroke="#009345" stroke-width="2" stroke-linecap="round" stroke-linejoin="round"/>
</g>
<defs>
<clipPath id="clip0_226_18017">
<rect width="24" height="24" fill="white" transform="translate(9 9)"/>
</clipPath>
</defs>
</svg>
