<svg width="28" height="28" viewBox="0 0 28 28" fill="none" xmlns="http://www.w3.org/2000/svg">
<g clip-path="url(#clip0_226_18162)">
<path d="M12.6606 0.0601692C8.28559 0.514074 4.45199 2.89298 2.1223 6.60079C-1.18082 11.8563 -0.557383 18.8344 3.62074 23.3789C5.94496 25.9055 8.82152 27.4094 12.2778 27.9016C12.9286 27.9945 15.0778 27.9891 15.7504 27.8961C19.152 27.4258 22.0286 25.9274 24.3473 23.4117C26.2559 21.3445 27.4754 18.6977 27.902 15.7227C27.995 15.0774 27.995 12.9227 27.902 12.2774C27.5793 10.0024 26.8575 8.07189 25.6598 6.2672C25.1567 5.50158 24.6481 4.87814 23.9371 4.16173C21.7551 1.95236 19.0536 0.590637 15.9418 0.131262C15.2692 0.0328255 13.3278 -0.0109253 12.6606 0.0601692ZM20.2348 8.61329C20.5575 8.91954 20.5629 9.13283 20.284 11.1836C20.0379 13.0102 19.1903 18.1617 18.8895 19.6328C18.7801 20.1742 18.5668 20.6391 18.3371 20.836C18.1731 20.9836 18.1129 21 17.7848 21C17.5168 21 17.3473 20.9672 17.145 20.8688C16.795 20.7102 12.5129 17.8227 12.2286 17.5602C11.9715 17.3195 11.8512 17.0625 11.9004 16.8547C11.9715 16.5594 12.2996 16.2094 13.8364 14.7656C15.652 13.0594 16.5762 12.157 16.7075 11.9602C16.8278 11.7742 16.7403 11.5938 16.5325 11.5938C16.352 11.5938 16.4996 11.5008 12.9887 13.836C9.71293 16.0125 9.63637 16.0563 8.94184 16.0399C8.41137 16.0289 6.30043 15.4547 5.71527 15.1649C5.11371 14.8641 5.1848 14.4156 5.8848 14.0656C6.49184 13.7594 13.6942 10.6641 15.9582 9.73986C19.2504 8.38908 19.8356 8.23048 20.2348 8.61329Z" fill="#28A9EA"/>
</g>
<defs>
<clipPath id="clip0_226_18162">
<rect width="28" height="28" fill="white"/>
</clipPath>
</defs>
</svg>
