<svg width="35" height="35" viewBox="0 0 35 35" fill="none" xmlns="http://www.w3.org/2000/svg">
<circle cx="17.5" cy="17.5" r="17.5" fill="white"/>
<path d="M15.9503 18.432C15.9503 20.2987 15.5929 21.7333 14.8783 22.736C14.1743 23.728 13.1983 24.224 11.9503 24.224C10.7023 24.224 9.72092 23.728 9.00625 22.736C8.30225 21.7333 7.95025 20.2987 7.95025 18.432C7.95025 17.504 8.04092 16.6827 8.22225 15.968C8.41425 15.2533 8.68625 14.6507 9.03825 14.16C9.39025 13.6693 9.81158 13.296 10.3023 13.04C10.7929 12.784 11.3423 12.656 11.9503 12.656C13.1983 12.656 14.1743 13.1573 14.8783 14.16C15.5929 15.152 15.9503 16.576 15.9503 18.432ZM13.5183 18.432C13.5183 17.8773 13.4916 17.376 13.4383 16.928C13.3849 16.4693 13.2996 16.0747 13.1823 15.744C13.0649 15.4133 12.9049 15.1573 12.7023 14.976C12.4996 14.7947 12.2489 14.704 11.9503 14.704C11.6516 14.704 11.4009 14.7947 11.1983 14.976C11.0063 15.1573 10.8463 15.4133 10.7183 15.744C10.6009 16.0747 10.5156 16.4693 10.4623 16.928C10.4089 17.376 10.3823 17.8773 10.3823 18.432C10.3823 18.9867 10.4089 19.4933 10.4623 19.952C10.5156 20.4107 10.6009 20.8053 10.7183 21.136C10.8463 21.4667 11.0063 21.7227 11.1983 21.904C11.4009 22.0853 11.6516 22.176 11.9503 22.176C12.2489 22.176 12.4996 22.0853 12.7023 21.904C12.9049 21.7227 13.0649 21.4667 13.1823 21.136C13.2996 20.8053 13.3849 20.4107 13.4383 19.952C13.4916 19.4933 13.5183 18.9867 13.5183 18.432ZM20.148 24.24C19.86 24.24 19.556 24.2187 19.236 24.176C18.916 24.144 18.6067 24.096 18.308 24.032C18.0093 23.968 17.7373 23.8987 17.492 23.824C17.2467 23.7493 17.0547 23.68 16.916 23.616L17.38 21.632C17.6573 21.7493 18.0093 21.8773 18.436 22.016C18.8733 22.144 19.412 22.208 20.052 22.208C20.788 22.208 21.3267 22.0693 21.668 21.792C22.0093 21.5147 22.18 21.1413 22.18 20.672C22.18 20.384 22.116 20.144 21.988 19.952C21.8707 19.7493 21.7053 19.5893 21.492 19.472C21.2787 19.344 21.0227 19.2587 20.724 19.216C20.436 19.1627 20.1267 19.136 19.796 19.136H18.868V17.216H19.924C20.1587 17.216 20.3827 17.1947 20.596 17.152C20.82 17.1093 21.0173 17.04 21.188 16.944C21.3587 16.8373 21.492 16.6987 21.588 16.528C21.6947 16.3467 21.748 16.1227 21.748 15.856C21.748 15.6533 21.7053 15.4773 21.62 15.328C21.5347 15.1787 21.4227 15.056 21.284 14.96C21.156 14.864 21.0013 14.7947 20.82 14.752C20.6493 14.6987 20.4733 14.672 20.292 14.672C19.8333 14.672 19.4067 14.7413 19.012 14.88C18.628 15.0187 18.276 15.1893 17.956 15.392L17.108 13.648C17.2787 13.5413 17.476 13.4293 17.7 13.312C17.9347 13.1947 18.1907 13.088 18.468 12.992C18.7453 12.896 19.0387 12.816 19.348 12.752C19.668 12.688 20.004 12.656 20.356 12.656C21.0067 12.656 21.5667 12.736 22.036 12.896C22.516 13.0453 22.9107 13.264 23.22 13.552C23.5293 13.8293 23.7587 14.16 23.908 14.544C24.0573 14.9173 24.132 15.328 24.132 15.776C24.132 16.2133 24.0093 16.64 23.764 17.056C23.5187 17.4613 23.188 17.7707 22.772 17.984C23.348 18.2187 23.7907 18.5707 24.1 19.04C24.42 19.4987 24.58 20.0533 24.58 20.704C24.58 21.216 24.4947 21.6907 24.324 22.128C24.1533 22.5547 23.8867 22.928 23.524 23.248C23.1613 23.5573 22.6973 23.8027 22.132 23.984C21.5773 24.1547 20.916 24.24 20.148 24.24Z" fill="#009345"/>
</svg>
