<svg width="31" height="30" viewBox="0 0 31 30" fill="none" xmlns="http://www.w3.org/2000/svg">
<g clip-path="url(#clip0_226_18123)">
<circle cx="15.4541" cy="15" r="15" fill="#665CAC"/>
<g clip-path="url(#clip1_226_18123)">
<path d="M22.3763 7.75276C21.9365 7.34401 20.1552 6.03001 16.1883 6.01276C16.1883 6.01276 11.5074 5.72851 9.22714 7.85176C7.95879 9.13876 7.51457 11.0235 7.46357 13.3613C7.41257 15.699 7.35566 20.0805 11.5177 21.2715H11.5214L11.5177 23.0858C11.5177 23.0858 11.4904 23.8208 11.9664 23.9685C12.5414 24.1515 12.8814 23.592 13.4321 22.9905C13.7336 22.6598 14.149 22.1753 14.4646 21.8055C16.2733 21.9755 18.0972 21.8343 19.8595 21.3878L19.7487 21.4118C20.3237 21.222 23.5774 20.7998 24.1036 16.419C24.6535 11.8965 23.842 9.04351 22.3763 7.75276ZM22.8582 16.089C22.4095 19.7453 19.7738 19.9778 19.2889 20.1353C18.2305 20.4083 17.0154 20.5643 15.764 20.5643C15.4048 20.5643 15.0485 20.5515 14.696 20.526L14.7433 20.529C14.7433 20.529 12.9413 22.7333 12.3803 23.3063C12.197 23.4923 11.9952 23.4773 11.9989 23.106C11.9989 22.8638 12.0129 20.0925 12.0129 20.0925C8.48948 19.101 8.69349 15.369 8.73488 13.4198C8.77627 11.4705 9.13696 9.86851 10.2109 8.79301C12.1415 7.01776 16.1158 7.28101 16.1158 7.28101C19.4737 7.29526 21.0813 8.32201 21.4553 8.66626C22.6926 9.74251 23.3231 12.3173 22.8582 16.089ZM18.0457 13.248V13.2585C18.0441 13.3169 18.0205 13.3725 17.9798 13.4137C17.939 13.455 17.8842 13.4788 17.8266 13.4803C17.7691 13.4817 17.7132 13.4607 17.6704 13.4215C17.6277 13.3823 17.6014 13.328 17.5971 13.2698C17.6121 13.1132 17.5935 12.9544 17.5425 12.8058C17.4915 12.6572 17.4093 12.5216 17.3017 12.4084C17.194 12.2952 17.0634 12.207 16.9189 12.15C16.7744 12.0929 16.6195 12.0684 16.4647 12.078H16.4677C16.4102 12.0735 16.3567 12.0468 16.3181 12.0033C16.2795 11.9599 16.2589 11.9031 16.2604 11.8447C16.2619 11.7862 16.2855 11.7306 16.3263 11.6893C16.367 11.648 16.4219 11.6242 16.4795 11.6228H16.4921H16.4913L16.5423 11.622C16.7487 11.6219 16.9528 11.6649 17.1421 11.7483C17.3314 11.8316 17.5018 11.9536 17.6427 12.1065C17.7837 12.2595 17.8921 12.4402 17.9613 12.6375C18.0305 12.8348 18.0589 13.0443 18.045 13.2533V13.2488L18.0457 13.248ZM18.7486 13.6463C18.7834 12.1553 17.8654 10.9883 16.1225 10.8578C16.0922 10.8568 16.0625 10.8496 16.0351 10.8367C16.0076 10.8238 15.983 10.8054 15.9627 10.7827C15.9424 10.7599 15.9269 10.7332 15.9171 10.7041C15.9072 10.6751 15.9032 10.6444 15.9054 10.6137C15.9075 10.5831 15.9157 10.5532 15.9295 10.5259C15.9433 10.4986 15.9624 10.4744 15.9857 10.4547C16.0089 10.4351 16.0358 10.4204 16.0648 10.4115C16.0938 10.4027 16.1242 10.3999 16.1543 10.4033H16.1535H16.1661C16.5797 10.4032 16.989 10.489 17.3687 10.6553C17.7485 10.8216 18.0907 11.0649 18.3745 11.3703C18.6582 11.6757 18.8774 12.0367 19.0186 12.4312C19.1599 12.8257 19.2202 13.2453 19.1958 13.6643L19.1965 13.656C19.1926 13.7141 19.1668 13.7685 19.1246 13.808C19.0824 13.8475 19.0268 13.869 18.9694 13.8683C18.912 13.8675 18.857 13.8445 18.8158 13.8039C18.7746 13.7633 18.7503 13.7082 18.7479 13.65V13.644L18.7486 13.6463ZM20.3747 14.118V14.1195C20.3717 14.1776 20.3469 14.2324 20.3054 14.2726C20.2639 14.3128 20.2088 14.3353 20.1514 14.3356C20.0941 14.3359 20.0387 14.3139 19.9968 14.2741C19.9549 14.2344 19.9296 14.1799 19.9261 14.1218C19.9083 11.2553 18.0243 9.6945 15.7411 9.678C15.7117 9.678 15.6826 9.67213 15.6554 9.66071C15.6282 9.64929 15.6035 9.63255 15.5827 9.61145C15.5619 9.59034 15.5454 9.56529 15.5342 9.53772C15.5229 9.51015 15.5171 9.4806 15.5171 9.45076C15.5171 9.42091 15.5229 9.39136 15.5342 9.36379C15.5454 9.33622 15.5619 9.31117 15.5827 9.29007C15.6035 9.26896 15.6282 9.25222 15.6554 9.2408C15.6826 9.22938 15.7117 9.22351 15.7411 9.22351C18.2977 9.24151 20.3525 11.0318 20.3732 14.1173L20.3747 14.118ZM19.9867 17.5665V17.5733C19.6127 18.2415 18.9127 18.9795 18.192 18.744L18.1854 18.7335C16.9006 18.2537 15.6962 17.576 14.6147 16.7243L14.645 16.7468C14.1068 16.3131 13.6186 15.8193 13.1896 15.2745L13.1756 15.2558C12.7872 14.7596 12.4405 14.2313 12.1393 13.6763L12.1097 13.617C11.7534 13.0208 11.4579 12.3893 11.228 11.7323L11.2058 11.6588C10.9737 10.9275 11.6973 10.2173 12.3596 9.83776H12.3662C12.4965 9.75313 12.653 9.72019 12.8057 9.74523C12.9584 9.77027 13.0967 9.85154 13.1941 9.97351L13.1948 9.97501C13.1948 9.97501 13.6242 10.4948 13.8083 10.752C13.9812 10.9913 14.2141 11.3745 14.3345 11.5883C14.4252 11.7343 14.4622 11.9082 14.4388 12.0792C14.4154 12.2502 14.3332 12.4073 14.2067 12.5228L14.2059 12.5235L13.7905 12.861C13.7258 12.9244 13.6757 13.0017 13.644 13.0872C13.6123 13.1727 13.5997 13.2642 13.6072 13.3553V13.353C13.8129 14.0485 14.1841 14.6819 14.6881 15.1974C15.1922 15.7129 15.8135 16.0946 16.4972 16.3088L16.5283 16.317C16.6175 16.3241 16.7073 16.3112 16.7911 16.2792C16.8749 16.2472 16.9507 16.1969 17.0131 16.1318L17.3457 15.7103C17.46 15.5813 17.6156 15.4977 17.7849 15.4742C17.9542 15.4507 18.1262 15.4889 18.2704 15.582L18.2674 15.5805C18.8684 15.9278 19.388 16.3095 19.8617 16.7423L19.8536 16.7348C19.9738 16.832 20.0538 16.9713 20.0779 17.1254C20.1019 17.2794 20.0683 17.4371 19.9837 17.5673L19.9852 17.565L19.9867 17.5665Z" fill="white"/>
</g>
</g>
<defs>
<clipPath id="clip0_226_18123">
<rect width="30" height="30" fill="white" transform="translate(0.454102)"/>
</clipPath>
<clipPath id="clip1_226_18123">
<rect width="17" height="18" fill="white" transform="translate(7.4541 6)"/>
</clipPath>
</defs>
</svg>
