<svg width="31" height="30" viewBox="0 0 31 30" fill="none" xmlns="http://www.w3.org/2000/svg">
<g clip-path="url(#clip0_226_18130)">
<circle cx="13.9541" cy="16.5" r="12.5" fill="white"/>
<path d="M13.9849 0.7696C13.8911 0.781319 13.5571 0.822334 13.2524 0.857491C10.7036 1.1446 8.16064 2.21101 5.98682 3.89265C5.34229 4.39069 4.0708 5.66218 3.57275 6.30671C1.94385 8.40437 0.965332 10.7012 0.555176 13.3731C0.42041 14.252 0.42041 16.5137 0.555176 17.3926C0.906738 19.6661 1.66846 21.6641 2.87549 23.4688C5.28369 27.0782 8.86963 29.2989 13.2817 29.9259C14.0728 30.0372 16.229 30.0196 17.0903 29.8966C19.2759 29.5743 21.3735 28.7716 23.1548 27.5821C26.77 25.1622 28.9907 21.5762 29.6118 17.17C29.7114 16.4844 29.7114 14.2813 29.6118 13.5958C29.0786 9.80476 27.3208 6.56452 24.5317 4.20905C22.4399 2.43952 19.8325 1.26765 17.1196 0.880928C16.4868 0.787178 14.3833 0.711006 13.9849 0.7696ZM16.2407 6.06647C20.3188 6.48835 23.4888 9.32429 24.3618 13.3321C24.4497 13.7305 24.4731 14.0821 24.4731 15.0899C24.4731 16.1973 24.4556 16.4259 24.3384 16.9591C23.9282 18.7755 23.1489 20.1993 21.8423 21.5118C20.5181 22.8301 18.9829 23.6622 17.0962 24.0665C16.5923 24.1778 16.3169 24.1954 15.2739 24.1954C14.2192 24.1954 13.9614 24.1778 13.4458 24.0665C12.731 23.9083 11.8696 23.627 11.2368 23.3341L10.7739 23.1173L8.23682 23.92C6.83643 24.3594 5.68213 24.7051 5.66455 24.6876C5.64697 24.6759 6.01025 23.586 6.46729 22.2794L7.29346 19.8946L6.93604 19.1446C6.26221 17.7325 6.01611 16.6661 6.02197 15.1485C6.02197 13.9473 6.11572 13.3438 6.45557 12.3301C7.25244 9.93952 8.9458 8.02937 11.231 6.93952C12.7896 6.19538 14.5474 5.89069 16.2407 6.06647Z" fill="#29A71A"/>
<path d="M14.0145 7.49616C11.4481 7.95905 9.39732 9.45319 8.2606 11.6798C7.05943 14.0411 7.19419 16.9005 8.61802 19.1153C8.78208 19.3731 8.91685 19.6134 8.91685 19.6485C8.91685 19.6837 8.71763 20.3223 8.47154 21.0665C8.2313 21.8165 8.03794 22.4376 8.04966 22.4493C8.06138 22.461 8.73521 22.2618 9.53794 22.0157L11.0086 21.5587L11.5887 21.8692C12.2508 22.2208 13.159 22.5372 13.9266 22.6837C14.6766 22.8301 16.0243 22.8184 16.8036 22.6602C19.9266 22.0333 22.3641 19.6485 22.9735 16.6251C23.1434 15.793 23.1786 15.1426 23.0965 14.4454C22.704 11.0294 20.3075 8.35749 16.9442 7.57819C16.2879 7.43171 14.6532 7.38483 14.0145 7.49616ZM12.661 11.1348C12.6903 11.17 12.9305 11.6915 13.1942 12.3067C13.5633 13.1739 13.6571 13.4434 13.6161 13.5372C13.5868 13.6016 13.3758 13.8712 13.1415 14.1407C12.9129 14.4044 12.7254 14.6446 12.7254 14.668C12.7254 14.7618 13.1415 15.4063 13.4461 15.7755C13.6102 15.9864 13.9383 16.3145 14.161 16.5079C14.8231 17.0704 16.118 17.7794 16.3465 17.6973C16.3993 17.6798 16.6278 17.4278 16.8446 17.1348C17.4657 16.3262 17.3426 16.3438 18.5672 16.9063C19.868 17.4981 19.8739 17.504 19.8739 17.7442C19.868 18.5059 19.3524 19.3028 18.6434 19.6251C17.7411 20.0352 16.6688 19.8712 15.0985 19.0977C14.1961 18.6466 13.4579 18.1075 12.6376 17.2872C11.7762 16.4317 11.2313 15.7169 10.8504 14.9434C10.4696 14.1817 10.3641 13.754 10.3934 13.0743C10.4051 12.6231 10.4403 12.4825 10.5926 12.1602C10.7801 11.7676 11.1786 11.2696 11.4012 11.1524C11.4657 11.1173 11.6004 11.0704 11.6942 11.0528C11.9169 11.0059 12.5907 11.0645 12.661 11.1348Z" fill="#29A71A"/>
</g>
<defs>
<clipPath id="clip0_226_18130">
<rect width="30" height="30" fill="white" transform="translate(0.454102)"/>
</clipPath>
</defs>
</svg>
