<svg width="28" height="28" viewBox="0 0 28 28" fill="none" xmlns="http://www.w3.org/2000/svg">
<g clip-path="url(#clip0_226_18165)">
<path d="M12.6927 0.0546856C7.94579 0.514059 3.70204 3.39062 1.55282 7.6125C0.792663 9.10546 0.344225 10.5437 0.0981314 12.2773C-0.0112436 13.043 0.00516266 15.0336 0.130944 15.8867C0.344225 17.407 0.792663 18.8453 1.48173 20.2289C2.84344 22.9742 5.02001 25.1508 7.77079 26.518C12.2278 28.7383 17.4997 28.432 21.6559 25.7141C23.2802 24.6531 24.8224 23.0781 25.8724 21.4047C26.277 20.7703 26.8786 19.5344 27.152 18.7906C27.4309 18.0359 27.7536 16.7344 27.8684 15.8867C27.9942 15.0281 28.0106 13.0375 27.9013 12.2773C27.5786 10.0078 26.8567 8.07187 25.6591 6.26718C25.1559 5.50156 24.6474 4.87812 23.9364 4.16172C21.7544 1.95781 19.0419 0.590622 15.9411 0.131247C15.2739 0.0328102 13.3927 -0.0109406 12.6927 0.0546856ZM19.3099 8.8375C20.3325 9.13828 21.0872 9.94218 21.3005 10.9648C21.4153 11.5227 21.4153 16.4773 21.3005 17.0352C21.0872 18.0578 20.327 18.8617 19.3099 19.1625C19.0474 19.2391 18.4294 19.25 13.9997 19.25C9.57001 19.25 8.95204 19.2391 8.68954 19.1625C7.66688 18.8617 6.91219 18.0578 6.69891 17.0352C6.58407 16.4773 6.58407 11.5227 6.69891 10.9648C6.91219 9.96406 7.58485 9.21484 8.58563 8.87578L8.9411 8.75546L13.9778 8.75C18.4294 8.75 19.0474 8.76093 19.3099 8.8375Z" fill="#FF0000"/>
<path d="M12.0312 13.9945C12.0312 15.2305 12.0422 16.2422 12.0586 16.2422C12.1133 16.2422 15.9141 14.0273 15.9141 14C15.9086 13.9727 12.1898 11.8016 12.0859 11.7688C12.0477 11.7578 12.0312 12.5453 12.0312 13.9945Z" fill="#FF0000"/>
</g>
<defs>
<clipPath id="clip0_226_18165">
<rect width="28" height="28" fill="white"/>
</clipPath>
</defs>
</svg>
